<?xml version="1.0" encoding="utf-8"?>
<svg xmlns="http://www.w3.org/2000/svg" xmlns:xlink="http://www.w3.org/1999/xlink" width="700" height="450" viewBox="0 0 2800 1800">
<defs>
  <clipPath id="clip080">
    <rect x="0" y="0" width="2800" height="1800"/>
  </clipPath>
</defs>
<path clip-path="url(#clip080)" d="M0 1800 L2800 1800 L2800 -2.27374e-13 L0 -2.27374e-13  Z" fill="#ffffff" fill-rule="evenodd" fill-opacity="1"/>
<defs>
  <clipPath id="clip081">
    <rect x="560" y="0" width="1961" height="1800"/>
  </clipPath>
</defs>
<path clip-path="url(#clip080)" d="M284.088 1599.12 L2752.76 1599.12 L2752.76 47.2441 L284.088 47.2441  Z" fill="#ffffff" fill-rule="evenodd" fill-opacity="1"/>
<defs>
  <clipPath id="clip082">
    <rect x="284" y="47" width="2470" height="1553"/>
  </clipPath>
</defs>
<polyline clip-path="url(#clip082)" style="stroke:#000000; stroke-linecap:round; stroke-linejoin:round; stroke-width:2; stroke-opacity:0.1; fill:none" points="334.469,1599.12 334.469,47.2441 "/>
<polyline clip-path="url(#clip082)" style="stroke:#000000; stroke-linecap:round; stroke-linejoin:round; stroke-width:2; stroke-opacity:0.1; fill:none" points="888.66,1599.12 888.66,47.2441 "/>
<polyline clip-path="url(#clip082)" style="stroke:#000000; stroke-linecap:round; stroke-linejoin:round; stroke-width:2; stroke-opacity:0.1; fill:none" points="1493.23,1599.12 1493.23,47.2441 "/>
<polyline clip-path="url(#clip082)" style="stroke:#000000; stroke-linecap:round; stroke-linejoin:round; stroke-width:2; stroke-opacity:0.1; fill:none" points="2702.37,1599.12 2702.37,47.2441 "/>
<polyline clip-path="url(#clip082)" style="stroke:#000000; stroke-linecap:round; stroke-linejoin:round; stroke-width:2; stroke-opacity:0.1; fill:none" points="334.469,1599.12 334.469,47.2441 "/>
<polyline clip-path="url(#clip082)" style="stroke:#000000; stroke-linecap:round; stroke-linejoin:round; stroke-width:2; stroke-opacity:0.1; fill:none" points="888.66,1599.12 888.66,47.2441 "/>
<polyline clip-path="url(#clip082)" style="stroke:#000000; stroke-linecap:round; stroke-linejoin:round; stroke-width:2; stroke-opacity:0.1; fill:none" points="1493.23,1599.12 1493.23,47.2441 "/>
<polyline clip-path="url(#clip082)" style="stroke:#000000; stroke-linecap:round; stroke-linejoin:round; stroke-width:2; stroke-opacity:0.1; fill:none" points="2702.37,1599.12 2702.37,47.2441 "/>
<polyline clip-path="url(#clip082)" style="stroke:#000000; stroke-linecap:round; stroke-linejoin:round; stroke-width:2; stroke-opacity:0.1; fill:none" points="284.088,1517.76 2752.76,1517.76 "/>
<polyline clip-path="url(#clip082)" style="stroke:#000000; stroke-linecap:round; stroke-linejoin:round; stroke-width:2; stroke-opacity:0.1; fill:none" points="284.088,1287.83 2752.76,1287.83 "/>
<polyline clip-path="url(#clip082)" style="stroke:#000000; stroke-linecap:round; stroke-linejoin:round; stroke-width:2; stroke-opacity:0.1; fill:none" points="284.088,1057.9 2752.76,1057.9 "/>
<polyline clip-path="url(#clip082)" style="stroke:#000000; stroke-linecap:round; stroke-linejoin:round; stroke-width:2; stroke-opacity:0.1; fill:none" points="284.088,827.963 2752.76,827.963 "/>
<polyline clip-path="url(#clip082)" style="stroke:#000000; stroke-linecap:round; stroke-linejoin:round; stroke-width:2; stroke-opacity:0.1; fill:none" points="284.088,598.03 2752.76,598.03 "/>
<polyline clip-path="url(#clip082)" style="stroke:#000000; stroke-linecap:round; stroke-linejoin:round; stroke-width:2; stroke-opacity:0.1; fill:none" points="284.088,368.097 2752.76,368.097 "/>
<polyline clip-path="url(#clip082)" style="stroke:#000000; stroke-linecap:round; stroke-linejoin:round; stroke-width:2; stroke-opacity:0.1; fill:none" points="284.088,138.163 2752.76,138.163 "/>
<polyline clip-path="url(#clip082)" style="stroke:#000000; stroke-linecap:round; stroke-linejoin:round; stroke-width:2; stroke-opacity:0.1; fill:none" points="284.088,1517.76 2752.76,1517.76 "/>
<polyline clip-path="url(#clip082)" style="stroke:#000000; stroke-linecap:round; stroke-linejoin:round; stroke-width:2; stroke-opacity:0.1; fill:none" points="284.088,1287.83 2752.76,1287.83 "/>
<polyline clip-path="url(#clip082)" style="stroke:#000000; stroke-linecap:round; stroke-linejoin:round; stroke-width:2; stroke-opacity:0.1; fill:none" points="284.088,1057.9 2752.76,1057.9 "/>
<polyline clip-path="url(#clip082)" style="stroke:#000000; stroke-linecap:round; stroke-linejoin:round; stroke-width:2; stroke-opacity:0.1; fill:none" points="284.088,827.963 2752.76,827.963 "/>
<polyline clip-path="url(#clip082)" style="stroke:#000000; stroke-linecap:round; stroke-linejoin:round; stroke-width:2; stroke-opacity:0.1; fill:none" points="284.088,598.03 2752.76,598.03 "/>
<polyline clip-path="url(#clip082)" style="stroke:#000000; stroke-linecap:round; stroke-linejoin:round; stroke-width:2; stroke-opacity:0.1; fill:none" points="284.088,368.097 2752.76,368.097 "/>
<polyline clip-path="url(#clip082)" style="stroke:#000000; stroke-linecap:round; stroke-linejoin:round; stroke-width:2; stroke-opacity:0.1; fill:none" points="284.088,138.163 2752.76,138.163 "/>
<polyline clip-path="url(#clip080)" style="stroke:#000000; stroke-linecap:round; stroke-linejoin:round; stroke-width:4; stroke-opacity:1; fill:none" points="284.088,1599.12 2752.76,1599.12 "/>
<polyline clip-path="url(#clip080)" style="stroke:#000000; stroke-linecap:round; stroke-linejoin:round; stroke-width:4; stroke-opacity:1; fill:none" points="284.088,47.2441 2752.76,47.2441 "/>
<polyline clip-path="url(#clip080)" style="stroke:#000000; stroke-linecap:round; stroke-linejoin:round; stroke-width:4; stroke-opacity:1; fill:none" points="334.469,1599.12 334.469,1580.22 "/>
<polyline clip-path="url(#clip080)" style="stroke:#000000; stroke-linecap:round; stroke-linejoin:round; stroke-width:4; stroke-opacity:1; fill:none" points="888.66,1599.12 888.66,1580.22 "/>
<polyline clip-path="url(#clip080)" style="stroke:#000000; stroke-linecap:round; stroke-linejoin:round; stroke-width:4; stroke-opacity:1; fill:none" points="1493.23,1599.12 1493.23,1580.22 "/>
<polyline clip-path="url(#clip080)" style="stroke:#000000; stroke-linecap:round; stroke-linejoin:round; stroke-width:4; stroke-opacity:1; fill:none" points="2702.37,1599.12 2702.37,1580.22 "/>
<polyline clip-path="url(#clip080)" style="stroke:#000000; stroke-linecap:round; stroke-linejoin:round; stroke-width:4; stroke-opacity:1; fill:none" points="334.469,47.2441 334.469,66.1417 "/>
<polyline clip-path="url(#clip080)" style="stroke:#000000; stroke-linecap:round; stroke-linejoin:round; stroke-width:4; stroke-opacity:1; fill:none" points="888.66,47.2441 888.66,66.1417 "/>
<polyline clip-path="url(#clip080)" style="stroke:#000000; stroke-linecap:round; stroke-linejoin:round; stroke-width:4; stroke-opacity:1; fill:none" points="1493.23,47.2441 1493.23,66.1417 "/>
<polyline clip-path="url(#clip080)" style="stroke:#000000; stroke-linecap:round; stroke-linejoin:round; stroke-width:4; stroke-opacity:1; fill:none" points="2702.37,47.2441 2702.37,66.1417 "/>
<path clip-path="url(#clip080)" d="M320.042 1680.41 L331.5 1680.41 L331.5 1640.87 L319.035 1643.37 L319.035 1636.98 L331.431 1634.48 L338.445 1634.48 L338.445 1680.41 L349.903 1680.41 L349.903 1686.32 L320.042 1686.32 L320.042 1680.41 Z" fill="#000000" fill-rule="nonzero" fill-opacity="1" /><path clip-path="url(#clip080)" d="M851.889 1680.41 L863.348 1680.41 L863.348 1640.87 L850.882 1643.37 L850.882 1636.98 L863.278 1634.48 L870.292 1634.48 L870.292 1680.41 L881.75 1680.41 L881.75 1686.32 L851.889 1686.32 L851.889 1680.41 Z" fill="#000000" fill-rule="nonzero" fill-opacity="1" /><path clip-path="url(#clip080)" d="M901.958 1680.41 L926.437 1680.41 L926.437 1686.32 L893.521 1686.32 L893.521 1680.41 Q897.514 1676.28 904.389 1669.34 Q911.299 1662.36 913.069 1660.34 Q916.438 1656.56 917.757 1653.96 Q919.111 1651.32 919.111 1648.78 Q919.111 1644.65 916.194 1642.05 Q913.313 1639.44 908.66 1639.44 Q905.361 1639.44 901.681 1640.59 Q898.035 1641.73 893.868 1644.06 L893.868 1636.98 Q898.104 1635.28 901.785 1634.41 Q905.465 1633.54 908.521 1633.54 Q916.576 1633.54 921.368 1637.57 Q926.16 1641.6 926.16 1648.33 Q926.16 1651.53 924.944 1654.41 Q923.764 1657.25 920.604 1661.14 Q919.736 1662.15 915.083 1666.98 Q910.431 1671.77 901.958 1680.41 Z" fill="#000000" fill-rule="nonzero" fill-opacity="1" /><path clip-path="url(#clip080)" d="M1461.03 1680.41 L1485.51 1680.41 L1485.51 1686.32 L1452.59 1686.32 L1452.59 1680.41 Q1456.58 1676.28 1463.46 1669.34 Q1470.37 1662.36 1472.14 1660.34 Q1475.51 1656.56 1476.83 1653.96 Q1478.18 1651.32 1478.18 1648.78 Q1478.18 1644.65 1475.26 1642.05 Q1472.38 1639.44 1467.73 1639.44 Q1464.43 1639.44 1460.75 1640.59 Q1457.1 1641.73 1452.94 1644.06 L1452.94 1636.98 Q1457.17 1635.28 1460.85 1634.41 Q1464.53 1633.54 1467.59 1633.54 Q1475.64 1633.54 1480.44 1637.57 Q1485.23 1641.6 1485.23 1648.33 Q1485.23 1651.53 1484.01 1654.41 Q1482.83 1657.25 1479.67 1661.14 Q1478.8 1662.15 1474.15 1666.98 Q1469.5 1671.77 1461.03 1680.41 Z" fill="#000000" fill-rule="nonzero" fill-opacity="1" /><path clip-path="url(#clip080)" d="M1519.5 1640.59 L1501.79 1668.26 L1519.5 1668.26 L1519.5 1640.59 M1517.66 1634.48 L1526.48 1634.48 L1526.48 1668.26 L1533.87 1668.26 L1533.87 1674.09 L1526.48 1674.09 L1526.48 1686.32 L1519.5 1686.32 L1519.5 1674.09 L1496.1 1674.09 L1496.1 1667.32 L1517.66 1634.48 Z" fill="#000000" fill-rule="nonzero" fill-opacity="1" /><path clip-path="url(#clip080)" d="M2684.7 1640.59 L2666.99 1668.26 L2684.7 1668.26 L2684.7 1640.59 M2682.86 1634.48 L2691.68 1634.48 L2691.68 1668.26 L2699.08 1668.26 L2699.08 1674.09 L2691.68 1674.09 L2691.68 1686.32 L2684.7 1686.32 L2684.7 1674.09 L2661.3 1674.09 L2661.3 1667.32 L2682.86 1634.48 Z" fill="#000000" fill-rule="nonzero" fill-opacity="1" /><path clip-path="url(#clip080)" d="M2725.67 1661.7 Q2720.67 1661.7 2717.79 1664.37 Q2714.94 1667.05 2714.94 1671.73 Q2714.94 1676.42 2717.79 1679.09 Q2720.67 1681.77 2725.67 1681.77 Q2730.67 1681.77 2733.56 1679.09 Q2736.44 1676.39 2736.44 1671.73 Q2736.44 1667.05 2733.56 1664.37 Q2730.71 1661.7 2725.67 1661.7 M2718.66 1658.71 Q2714.15 1657.6 2711.61 1654.51 Q2709.11 1651.42 2709.11 1646.98 Q2709.11 1640.76 2713.52 1637.15 Q2717.97 1633.54 2725.67 1633.54 Q2733.42 1633.54 2737.83 1637.15 Q2742.24 1640.76 2742.24 1646.98 Q2742.24 1651.42 2739.7 1654.51 Q2737.2 1657.6 2732.72 1658.71 Q2737.79 1659.89 2740.6 1663.33 Q2743.45 1666.77 2743.45 1671.73 Q2743.45 1679.27 2738.83 1683.3 Q2734.25 1687.32 2725.67 1687.32 Q2717.1 1687.32 2712.48 1683.3 Q2707.9 1679.27 2707.9 1671.73 Q2707.9 1666.77 2710.74 1663.33 Q2713.59 1659.89 2718.66 1658.71 M2716.09 1647.64 Q2716.09 1651.66 2718.59 1653.92 Q2721.12 1656.18 2725.67 1656.18 Q2730.19 1656.18 2732.72 1653.92 Q2735.29 1651.66 2735.29 1647.64 Q2735.29 1643.61 2732.72 1641.35 Q2730.19 1639.1 2725.67 1639.1 Q2721.12 1639.1 2718.59 1641.35 Q2716.09 1643.61 2716.09 1647.64 Z" fill="#000000" fill-rule="nonzero" fill-opacity="1" /><path clip-path="url(#clip080)" d="M1200.82 1760.84 L1200.82 1786.27 L1193.89 1786.27 L1193.89 1761.07 Q1193.89 1755.09 1191.56 1752.11 Q1189.23 1749.14 1184.57 1749.14 Q1178.96 1749.14 1175.73 1752.72 Q1172.49 1756.29 1172.49 1762.46 L1172.49 1786.27 L1165.53 1786.27 L1165.53 1744.14 L1172.49 1744.14 L1172.49 1750.68 Q1174.97 1746.89 1178.32 1745 Q1181.71 1743.12 1186.11 1743.12 Q1193.37 1743.12 1197.09 1747.64 Q1200.82 1752.11 1200.82 1760.84 Z" fill="#000000" fill-rule="nonzero" fill-opacity="1" /><path clip-path="url(#clip080)" d="M1213.91 1769.64 L1213.91 1744.14 L1220.83 1744.14 L1220.83 1769.38 Q1220.83 1775.36 1223.16 1778.37 Q1225.49 1781.34 1230.16 1781.34 Q1235.76 1781.34 1239 1777.77 Q1242.27 1774.19 1242.27 1768.03 L1242.27 1744.14 L1249.19 1744.14 L1249.19 1786.27 L1242.27 1786.27 L1242.27 1779.8 Q1239.75 1783.64 1236.4 1785.52 Q1233.09 1787.36 1228.69 1787.36 Q1221.43 1787.36 1217.67 1782.85 Q1213.91 1778.33 1213.91 1769.64 M1231.32 1743.12 L1231.32 1743.12 Z" fill="#000000" fill-rule="nonzero" fill-opacity="1" /><path clip-path="url(#clip080)" d="M1296.25 1752.23 Q1298.84 1747.56 1302.45 1745.34 Q1306.06 1743.12 1310.95 1743.12 Q1317.54 1743.12 1321.11 1747.75 Q1324.68 1752.34 1324.68 1760.84 L1324.68 1786.27 L1317.72 1786.27 L1317.72 1761.07 Q1317.72 1755.01 1315.58 1752.08 Q1313.44 1749.14 1309.04 1749.14 Q1303.66 1749.14 1300.53 1752.72 Q1297.41 1756.29 1297.41 1762.46 L1297.41 1786.27 L1290.45 1786.27 L1290.45 1761.07 Q1290.45 1754.97 1288.31 1752.08 Q1286.16 1749.14 1281.69 1749.14 Q1276.38 1749.14 1273.26 1752.75 Q1270.14 1756.33 1270.14 1762.46 L1270.14 1786.27 L1263.18 1786.27 L1263.18 1744.14 L1270.14 1744.14 L1270.14 1750.68 Q1272.51 1746.81 1275.82 1744.97 Q1279.13 1743.12 1283.68 1743.12 Q1288.27 1743.12 1291.47 1745.46 Q1294.7 1747.79 1296.25 1752.23 Z" fill="#000000" fill-rule="nonzero" fill-opacity="1" /><path clip-path="url(#clip080)" d="M1368.73 1765.24 Q1368.73 1757.61 1365.57 1753.28 Q1362.45 1748.92 1356.96 1748.92 Q1351.47 1748.92 1348.31 1753.28 Q1345.18 1757.61 1345.18 1765.24 Q1345.18 1772.88 1348.31 1777.24 Q1351.47 1781.57 1356.96 1781.57 Q1362.45 1781.57 1365.57 1777.24 Q1368.73 1772.88 1368.73 1765.24 M1345.18 1750.53 Q1347.37 1746.77 1350.68 1744.97 Q1354.02 1743.12 1358.65 1743.12 Q1366.32 1743.12 1371.1 1749.22 Q1375.92 1755.31 1375.92 1765.24 Q1375.92 1775.17 1371.1 1781.27 Q1366.32 1787.36 1358.65 1787.36 Q1354.02 1787.36 1350.68 1785.55 Q1347.37 1783.71 1345.18 1779.95 L1345.18 1786.27 L1338.22 1786.27 L1338.22 1727.74 L1345.18 1727.74 L1345.18 1750.53 Z" fill="#000000" fill-rule="nonzero" fill-opacity="1" /><path clip-path="url(#clip080)" d="M1423.42 1763.47 L1423.42 1766.86 L1391.6 1766.86 Q1392.05 1774.01 1395.89 1777.77 Q1399.76 1781.49 1406.65 1781.49 Q1410.63 1781.49 1414.36 1780.51 Q1418.12 1779.54 1421.81 1777.58 L1421.81 1784.12 Q1418.08 1785.7 1414.17 1786.53 Q1410.26 1787.36 1406.23 1787.36 Q1396.15 1787.36 1390.25 1781.49 Q1384.38 1775.62 1384.38 1765.62 Q1384.38 1755.27 1389.95 1749.22 Q1395.55 1743.12 1405.03 1743.12 Q1413.53 1743.12 1418.46 1748.62 Q1423.42 1754.07 1423.42 1763.47 M1416.5 1761.44 Q1416.43 1755.76 1413.31 1752.38 Q1410.22 1748.99 1405.11 1748.99 Q1399.31 1748.99 1395.81 1752.26 Q1392.35 1755.54 1391.83 1761.48 L1416.5 1761.44 Z" fill="#000000" fill-rule="nonzero" fill-opacity="1" /><path clip-path="url(#clip080)" d="M1459.2 1750.61 Q1458.03 1749.93 1456.64 1749.63 Q1455.28 1749.29 1453.63 1749.29 Q1447.76 1749.29 1444.6 1753.13 Q1441.48 1756.93 1441.48 1764.08 L1441.48 1786.27 L1434.52 1786.27 L1434.52 1744.14 L1441.48 1744.14 L1441.48 1750.68 Q1443.66 1746.85 1447.16 1745 Q1450.66 1743.12 1455.66 1743.12 Q1456.38 1743.12 1457.24 1743.24 Q1458.11 1743.31 1459.16 1743.5 L1459.2 1750.61 Z" fill="#000000" fill-rule="nonzero" fill-opacity="1" /><path clip-path="url(#clip080)" d="M1507.27 1748.99 Q1501.7 1748.99 1498.47 1753.36 Q1495.23 1757.68 1495.23 1765.24 Q1495.23 1772.8 1498.43 1777.17 Q1501.66 1781.49 1507.27 1781.49 Q1512.8 1781.49 1516.03 1777.13 Q1519.27 1772.77 1519.27 1765.24 Q1519.27 1757.76 1516.03 1753.39 Q1512.8 1748.99 1507.27 1748.99 M1507.27 1743.12 Q1516.3 1743.12 1521.45 1748.99 Q1526.6 1754.86 1526.6 1765.24 Q1526.6 1775.59 1521.45 1781.49 Q1516.3 1787.36 1507.27 1787.36 Q1498.2 1787.36 1493.05 1781.49 Q1487.93 1775.59 1487.93 1765.24 Q1487.93 1754.86 1493.05 1748.99 Q1498.2 1743.12 1507.27 1743.12 Z" fill="#000000" fill-rule="nonzero" fill-opacity="1" /><path clip-path="url(#clip080)" d="M1559.4 1727.74 L1559.4 1733.49 L1552.78 1733.49 Q1549.06 1733.49 1547.59 1735 Q1546.16 1736.5 1546.16 1740.42 L1546.16 1744.14 L1557.56 1744.14 L1557.56 1749.52 L1546.16 1749.52 L1546.16 1786.27 L1539.2 1786.27 L1539.2 1749.52 L1532.58 1749.52 L1532.58 1744.14 L1539.2 1744.14 L1539.2 1741.21 Q1539.2 1734.17 1542.48 1730.97 Q1545.75 1727.74 1552.86 1727.74 L1559.4 1727.74 Z" fill="#000000" fill-rule="nonzero" fill-opacity="1" /><path clip-path="url(#clip080)" d="M1596.53 1732.18 L1596.53 1744.14 L1610.79 1744.14 L1610.79 1749.52 L1596.53 1749.52 L1596.53 1772.39 Q1596.53 1777.54 1597.92 1779.01 Q1599.35 1780.48 1603.68 1780.48 L1610.79 1780.48 L1610.79 1786.27 L1603.68 1786.27 Q1595.67 1786.27 1592.62 1783.3 Q1589.57 1780.29 1589.57 1772.39 L1589.57 1749.52 L1584.49 1749.52 L1584.49 1744.14 L1589.57 1744.14 L1589.57 1732.18 L1596.53 1732.18 Z" fill="#000000" fill-rule="nonzero" fill-opacity="1" /><path clip-path="url(#clip080)" d="M1654.91 1760.84 L1654.91 1786.27 L1647.99 1786.27 L1647.99 1761.07 Q1647.99 1755.09 1645.66 1752.11 Q1643.32 1749.14 1638.66 1749.14 Q1633.06 1749.14 1629.82 1752.72 Q1626.59 1756.29 1626.59 1762.46 L1626.59 1786.27 L1619.63 1786.27 L1619.63 1727.74 L1626.59 1727.74 L1626.59 1750.68 Q1629.07 1746.89 1632.42 1745 Q1635.8 1743.12 1640.2 1743.12 Q1647.46 1743.12 1651.19 1747.64 Q1654.91 1752.11 1654.91 1760.84 Z" fill="#000000" fill-rule="nonzero" fill-opacity="1" /><path clip-path="url(#clip080)" d="M1693.13 1750.61 Q1691.96 1749.93 1690.57 1749.63 Q1689.22 1749.29 1687.56 1749.29 Q1681.69 1749.29 1678.53 1753.13 Q1675.41 1756.93 1675.41 1764.08 L1675.41 1786.27 L1668.45 1786.27 L1668.45 1744.14 L1675.41 1744.14 L1675.41 1750.68 Q1677.59 1746.85 1681.09 1745 Q1684.59 1743.12 1689.59 1743.12 Q1690.31 1743.12 1691.17 1743.24 Q1692.04 1743.31 1693.09 1743.5 L1693.13 1750.61 Z" fill="#000000" fill-rule="nonzero" fill-opacity="1" /><path clip-path="url(#clip080)" d="M1734.73 1763.47 L1734.73 1766.86 L1702.91 1766.86 Q1703.36 1774.01 1707.2 1777.77 Q1711.07 1781.49 1717.95 1781.49 Q1721.94 1781.49 1725.66 1780.51 Q1729.43 1779.54 1733.11 1777.58 L1733.11 1784.12 Q1729.39 1785.7 1725.48 1786.53 Q1721.56 1787.36 1717.54 1787.36 Q1707.46 1787.36 1701.55 1781.49 Q1695.69 1775.62 1695.69 1765.62 Q1695.69 1755.27 1701.25 1749.22 Q1706.86 1743.12 1716.34 1743.12 Q1724.84 1743.12 1729.76 1748.62 Q1734.73 1754.07 1734.73 1763.47 M1727.81 1761.44 Q1727.73 1755.76 1724.61 1752.38 Q1721.53 1748.99 1716.41 1748.99 Q1710.62 1748.99 1707.12 1752.26 Q1703.66 1755.54 1703.13 1761.48 L1727.81 1761.44 Z" fill="#000000" fill-rule="nonzero" fill-opacity="1" /><path clip-path="url(#clip080)" d="M1765.24 1765.09 Q1756.85 1765.09 1753.61 1767.01 Q1750.38 1768.93 1750.38 1773.55 Q1750.38 1777.24 1752.79 1779.42 Q1755.23 1781.57 1759.41 1781.57 Q1765.16 1781.57 1768.62 1777.5 Q1772.12 1773.4 1772.12 1766.63 L1772.12 1765.09 L1765.24 1765.09 M1779.04 1762.23 L1779.04 1786.27 L1772.12 1786.27 L1772.12 1779.87 Q1769.75 1783.71 1766.21 1785.55 Q1762.68 1787.36 1757.56 1787.36 Q1751.09 1787.36 1747.26 1783.75 Q1743.46 1780.1 1743.46 1774.01 Q1743.46 1766.9 1748.2 1763.29 Q1752.97 1759.67 1762.42 1759.67 L1772.12 1759.67 L1772.12 1759 Q1772.12 1754.22 1768.96 1751.63 Q1765.84 1748.99 1760.16 1748.99 Q1756.55 1748.99 1753.12 1749.86 Q1749.7 1750.72 1746.54 1752.45 L1746.54 1746.06 Q1750.34 1744.59 1753.91 1743.88 Q1757.49 1743.12 1760.87 1743.12 Q1770.01 1743.12 1774.53 1747.86 Q1779.04 1752.6 1779.04 1762.23 Z" fill="#000000" fill-rule="nonzero" fill-opacity="1" /><path clip-path="url(#clip080)" d="M1821.02 1750.53 L1821.02 1727.74 L1827.94 1727.74 L1827.94 1786.27 L1821.02 1786.27 L1821.02 1779.95 Q1818.84 1783.71 1815.49 1785.55 Q1812.18 1787.36 1807.52 1787.36 Q1799.88 1787.36 1795.07 1781.27 Q1790.29 1775.17 1790.29 1765.24 Q1790.29 1755.31 1795.07 1749.22 Q1799.88 1743.12 1807.52 1743.12 Q1812.18 1743.12 1815.49 1744.97 Q1818.84 1746.77 1821.02 1750.53 M1797.44 1765.24 Q1797.44 1772.88 1800.56 1777.24 Q1803.72 1781.57 1809.21 1781.57 Q1814.7 1781.57 1817.86 1777.24 Q1821.02 1772.88 1821.02 1765.24 Q1821.02 1757.61 1817.86 1753.28 Q1814.7 1748.92 1809.21 1748.92 Q1803.72 1748.92 1800.56 1753.28 Q1797.44 1757.61 1797.44 1765.24 Z" fill="#000000" fill-rule="nonzero" fill-opacity="1" /><path clip-path="url(#clip080)" d="M1869.06 1745.38 L1869.06 1751.93 Q1866.12 1750.42 1862.96 1749.67 Q1859.8 1748.92 1856.42 1748.92 Q1851.26 1748.92 1848.67 1750.5 Q1846.11 1752.08 1846.11 1755.24 Q1846.11 1757.64 1847.95 1759.04 Q1849.8 1760.39 1855.36 1761.63 L1857.73 1762.16 Q1865.11 1763.74 1868.19 1766.63 Q1871.31 1769.49 1871.31 1774.65 Q1871.31 1780.51 1866.65 1783.94 Q1862.02 1787.36 1853.9 1787.36 Q1850.51 1787.36 1846.82 1786.68 Q1843.18 1786.04 1839.11 1784.73 L1839.11 1777.58 Q1842.95 1779.57 1846.67 1780.59 Q1850.4 1781.57 1854.05 1781.57 Q1858.94 1781.57 1861.57 1779.91 Q1864.2 1778.22 1864.2 1775.17 Q1864.2 1772.35 1862.28 1770.85 Q1860.4 1769.34 1853.97 1767.95 L1851.56 1767.39 Q1845.13 1766.03 1842.27 1763.25 Q1839.41 1760.43 1839.41 1755.54 Q1839.41 1749.59 1843.63 1746.36 Q1847.84 1743.12 1855.59 1743.12 Q1859.43 1743.12 1862.81 1743.69 Q1866.2 1744.25 1869.06 1745.38 Z" fill="#000000" fill-rule="nonzero" fill-opacity="1" /><polyline clip-path="url(#clip080)" style="stroke:#000000; stroke-linecap:round; stroke-linejoin:round; stroke-width:4; stroke-opacity:1; fill:none" points="284.088,1599.12 284.088,47.2441 "/>
<polyline clip-path="url(#clip080)" style="stroke:#000000; stroke-linecap:round; stroke-linejoin:round; stroke-width:4; stroke-opacity:1; fill:none" points="2752.76,1599.12 2752.76,47.2441 "/>
<polyline clip-path="url(#clip080)" style="stroke:#000000; stroke-linecap:round; stroke-linejoin:round; stroke-width:4; stroke-opacity:1; fill:none" points="284.088,1517.76 302.986,1517.76 "/>
<polyline clip-path="url(#clip080)" style="stroke:#000000; stroke-linecap:round; stroke-linejoin:round; stroke-width:4; stroke-opacity:1; fill:none" points="284.088,1287.83 302.986,1287.83 "/>
<polyline clip-path="url(#clip080)" style="stroke:#000000; stroke-linecap:round; stroke-linejoin:round; stroke-width:4; stroke-opacity:1; fill:none" points="284.088,1057.9 302.986,1057.9 "/>
<polyline clip-path="url(#clip080)" style="stroke:#000000; stroke-linecap:round; stroke-linejoin:round; stroke-width:4; stroke-opacity:1; fill:none" points="284.088,827.963 302.986,827.963 "/>
<polyline clip-path="url(#clip080)" style="stroke:#000000; stroke-linecap:round; stroke-linejoin:round; stroke-width:4; stroke-opacity:1; fill:none" points="284.088,598.03 302.986,598.03 "/>
<polyline clip-path="url(#clip080)" style="stroke:#000000; stroke-linecap:round; stroke-linejoin:round; stroke-width:4; stroke-opacity:1; fill:none" points="284.088,368.097 302.986,368.097 "/>
<polyline clip-path="url(#clip080)" style="stroke:#000000; stroke-linecap:round; stroke-linejoin:round; stroke-width:4; stroke-opacity:1; fill:none" points="284.088,138.163 302.986,138.163 "/>
<polyline clip-path="url(#clip080)" style="stroke:#000000; stroke-linecap:round; stroke-linejoin:round; stroke-width:4; stroke-opacity:1; fill:none" points="2752.76,1517.76 2733.86,1517.76 "/>
<polyline clip-path="url(#clip080)" style="stroke:#000000; stroke-linecap:round; stroke-linejoin:round; stroke-width:4; stroke-opacity:1; fill:none" points="2752.76,1287.83 2733.86,1287.83 "/>
<polyline clip-path="url(#clip080)" style="stroke:#000000; stroke-linecap:round; stroke-linejoin:round; stroke-width:4; stroke-opacity:1; fill:none" points="2752.76,1057.9 2733.86,1057.9 "/>
<polyline clip-path="url(#clip080)" style="stroke:#000000; stroke-linecap:round; stroke-linejoin:round; stroke-width:4; stroke-opacity:1; fill:none" points="2752.76,827.963 2733.86,827.963 "/>
<polyline clip-path="url(#clip080)" style="stroke:#000000; stroke-linecap:round; stroke-linejoin:round; stroke-width:4; stroke-opacity:1; fill:none" points="2752.76,598.03 2733.86,598.03 "/>
<polyline clip-path="url(#clip080)" style="stroke:#000000; stroke-linecap:round; stroke-linejoin:round; stroke-width:4; stroke-opacity:1; fill:none" points="2752.76,368.097 2733.86,368.097 "/>
<polyline clip-path="url(#clip080)" style="stroke:#000000; stroke-linecap:round; stroke-linejoin:round; stroke-width:4; stroke-opacity:1; fill:none" points="2752.76,138.163 2733.86,138.163 "/>
<path clip-path="url(#clip080)" d="M171.464 1537.78 L195.943 1537.78 L195.943 1543.68 L163.026 1543.68 L163.026 1537.78 Q167.019 1533.65 173.894 1526.7 Q180.804 1519.72 182.575 1517.71 Q185.943 1513.93 187.262 1511.32 Q188.616 1508.68 188.616 1506.15 Q188.616 1502.02 185.7 1499.41 Q182.818 1496.81 178.165 1496.81 Q174.866 1496.81 171.186 1497.95 Q167.54 1499.1 163.373 1501.43 L163.373 1494.34 Q167.609 1492.64 171.29 1491.77 Q174.971 1490.91 178.026 1490.91 Q186.082 1490.91 190.873 1494.93 Q195.665 1498.96 195.665 1505.7 Q195.665 1508.89 194.45 1511.77 Q193.269 1514.62 190.109 1518.51 Q189.241 1519.52 184.589 1524.34 Q179.936 1529.13 171.464 1537.78 Z" fill="#000000" fill-rule="nonzero" fill-opacity="1" /><path clip-path="url(#clip080)" d="M210.734 1491.84 L238.269 1491.84 L238.269 1497.75 L217.158 1497.75 L217.158 1510.45 Q218.686 1509.93 220.213 1509.69 Q221.741 1509.41 223.269 1509.41 Q231.949 1509.41 237.019 1514.17 Q242.088 1518.93 242.088 1527.05 Q242.088 1535.42 236.88 1540.07 Q231.672 1544.69 222.193 1544.69 Q218.929 1544.69 215.526 1544.13 Q212.158 1543.58 208.547 1542.47 L208.547 1535.42 Q211.672 1537.12 215.005 1537.95 Q218.338 1538.79 222.054 1538.79 Q228.061 1538.79 231.567 1535.63 Q235.074 1532.47 235.074 1527.05 Q235.074 1521.63 231.567 1518.47 Q228.061 1515.32 222.054 1515.32 Q219.241 1515.32 216.429 1515.94 Q213.651 1516.57 210.734 1517.88 L210.734 1491.84 Z" fill="#000000" fill-rule="nonzero" fill-opacity="1" /><path clip-path="url(#clip080)" d="M163.998 1261.91 L191.533 1261.91 L191.533 1267.81 L170.422 1267.81 L170.422 1280.52 Q171.95 1280 173.477 1279.76 Q175.005 1279.48 176.533 1279.48 Q185.214 1279.48 190.283 1284.24 Q195.352 1288.99 195.352 1297.12 Q195.352 1305.49 190.144 1310.14 Q184.936 1314.76 175.457 1314.76 Q172.193 1314.76 168.79 1314.2 Q165.422 1313.65 161.811 1312.53 L161.811 1305.49 Q164.936 1307.19 168.269 1308.02 Q171.602 1308.85 175.318 1308.85 Q181.325 1308.85 184.832 1305.69 Q188.339 1302.53 188.339 1297.12 Q188.339 1291.7 184.832 1288.54 Q181.325 1285.38 175.318 1285.38 Q172.505 1285.38 169.693 1286.01 Q166.915 1286.63 163.998 1287.95 L163.998 1261.91 Z" fill="#000000" fill-rule="nonzero" fill-opacity="1" /><path clip-path="url(#clip080)" d="M224.172 1266.53 Q218.755 1266.53 216.012 1271.87 Q213.304 1277.19 213.304 1287.88 Q213.304 1298.54 216.012 1303.89 Q218.755 1309.2 224.172 1309.2 Q229.623 1309.2 232.331 1303.89 Q235.074 1298.54 235.074 1287.88 Q235.074 1277.19 232.331 1271.87 Q229.623 1266.53 224.172 1266.53 M224.172 1260.97 Q232.887 1260.97 237.47 1267.88 Q242.088 1274.76 242.088 1287.88 Q242.088 1300.97 237.47 1307.88 Q232.887 1314.76 224.172 1314.76 Q215.456 1314.76 210.838 1307.88 Q206.255 1300.97 206.255 1287.88 Q206.255 1274.76 210.838 1267.88 Q215.456 1260.97 224.172 1260.97 Z" fill="#000000" fill-rule="nonzero" fill-opacity="1" /><path clip-path="url(#clip080)" d="M163.651 1031.98 L196.984 1031.98 L196.984 1034.96 L178.165 1083.82 L170.839 1083.82 L188.547 1037.88 L163.651 1037.88 L163.651 1031.98 Z" fill="#000000" fill-rule="nonzero" fill-opacity="1" /><path clip-path="url(#clip080)" d="M210.734 1031.98 L238.269 1031.98 L238.269 1037.88 L217.158 1037.88 L217.158 1050.59 Q218.686 1050.07 220.213 1049.82 Q221.741 1049.55 223.269 1049.55 Q231.949 1049.55 237.019 1054.3 Q242.088 1059.06 242.088 1067.18 Q242.088 1075.55 236.88 1080.21 Q231.672 1084.82 222.193 1084.82 Q218.929 1084.82 215.526 1084.27 Q212.158 1083.71 208.547 1082.6 L208.547 1075.55 Q211.672 1077.25 215.005 1078.09 Q218.338 1078.92 222.054 1078.92 Q228.061 1078.92 231.567 1075.76 Q235.074 1072.6 235.074 1067.18 Q235.074 1061.77 231.567 1058.61 Q228.061 1055.45 222.054 1055.45 Q219.241 1055.45 216.429 1056.07 Q213.651 1056.7 210.734 1058.02 L210.734 1031.98 Z" fill="#000000" fill-rule="nonzero" fill-opacity="1" /><path clip-path="url(#clip080)" d="M119.901 847.98 L131.36 847.98 L131.36 808.432 L118.894 810.932 L118.894 804.543 L131.29 802.043 L138.304 802.043 L138.304 847.98 L149.762 847.98 L149.762 853.883 L119.901 853.883 L119.901 847.98 Z" fill="#000000" fill-rule="nonzero" fill-opacity="1" /><path clip-path="url(#clip080)" d="M178.929 806.661 Q173.512 806.661 170.769 812.008 Q168.061 817.321 168.061 828.015 Q168.061 838.675 170.769 844.022 Q173.512 849.335 178.929 849.335 Q184.38 849.335 187.089 844.022 Q189.832 838.675 189.832 828.015 Q189.832 817.321 187.089 812.008 Q184.38 806.661 178.929 806.661 M178.929 801.106 Q187.644 801.106 192.227 808.015 Q196.845 814.89 196.845 828.015 Q196.845 841.105 192.227 848.015 Q187.644 854.89 178.929 854.89 Q170.214 854.89 165.596 848.015 Q161.012 841.105 161.012 828.015 Q161.012 814.89 165.596 808.015 Q170.214 801.106 178.929 801.106 Z" fill="#000000" fill-rule="nonzero" fill-opacity="1" /><path clip-path="url(#clip080)" d="M224.172 806.661 Q218.755 806.661 216.012 812.008 Q213.304 817.321 213.304 828.015 Q213.304 838.675 216.012 844.022 Q218.755 849.335 224.172 849.335 Q229.623 849.335 232.331 844.022 Q235.074 838.675 235.074 828.015 Q235.074 817.321 232.331 812.008 Q229.623 806.661 224.172 806.661 M224.172 801.106 Q232.887 801.106 237.47 808.015 Q242.088 814.89 242.088 828.015 Q242.088 841.105 237.47 848.015 Q232.887 854.89 224.172 854.89 Q215.456 854.89 210.838 848.015 Q206.255 841.105 206.255 828.015 Q206.255 814.89 210.838 808.015 Q215.456 801.106 224.172 801.106 Z" fill="#000000" fill-rule="nonzero" fill-opacity="1" /><path clip-path="url(#clip080)" d="M121.394 618.047 L132.853 618.047 L132.853 578.499 L120.387 580.999 L120.387 574.61 L132.783 572.11 L139.797 572.11 L139.797 618.047 L151.255 618.047 L151.255 623.95 L121.394 623.95 L121.394 618.047 Z" fill="#000000" fill-rule="nonzero" fill-opacity="1" /><path clip-path="url(#clip080)" d="M171.464 618.047 L195.943 618.047 L195.943 623.95 L163.026 623.95 L163.026 618.047 Q167.019 613.915 173.894 606.971 Q180.804 599.992 182.575 597.978 Q185.943 594.193 187.262 591.589 Q188.616 588.95 188.616 586.415 Q188.616 582.283 185.7 579.679 Q182.818 577.075 178.165 577.075 Q174.866 577.075 171.186 578.221 Q167.54 579.367 163.373 581.693 L163.373 574.61 Q167.609 572.909 171.29 572.04 Q174.971 571.172 178.026 571.172 Q186.082 571.172 190.873 575.2 Q195.665 579.228 195.665 585.964 Q195.665 589.158 194.45 592.04 Q193.269 594.888 190.109 598.776 Q189.241 599.783 184.589 604.61 Q179.936 609.401 171.464 618.047 Z" fill="#000000" fill-rule="nonzero" fill-opacity="1" /><path clip-path="url(#clip080)" d="M210.734 572.11 L238.269 572.11 L238.269 578.013 L217.158 578.013 L217.158 590.721 Q218.686 590.2 220.213 589.957 Q221.741 589.679 223.269 589.679 Q231.949 589.679 237.019 594.436 Q242.088 599.193 242.088 607.318 Q242.088 615.686 236.88 620.339 Q231.672 624.957 222.193 624.957 Q218.929 624.957 215.526 624.401 Q212.158 623.846 208.547 622.735 L208.547 615.686 Q211.672 617.387 215.005 618.221 Q218.338 619.054 222.054 619.054 Q228.061 619.054 231.567 615.894 Q235.074 612.735 235.074 607.318 Q235.074 601.901 231.567 598.742 Q228.061 595.582 222.054 595.582 Q219.241 595.582 216.429 596.207 Q213.651 596.832 210.734 598.151 L210.734 572.11 Z" fill="#000000" fill-rule="nonzero" fill-opacity="1" /><path clip-path="url(#clip080)" d="M119.901 388.114 L131.36 388.114 L131.36 348.565 L118.894 351.065 L118.894 344.677 L131.29 342.177 L138.304 342.177 L138.304 388.114 L149.762 388.114 L149.762 394.017 L119.901 394.017 L119.901 388.114 Z" fill="#000000" fill-rule="nonzero" fill-opacity="1" /><path clip-path="url(#clip080)" d="M163.998 342.177 L191.533 342.177 L191.533 348.079 L170.422 348.079 L170.422 360.788 Q171.95 360.267 173.477 360.024 Q175.005 359.746 176.533 359.746 Q185.214 359.746 190.283 364.503 Q195.352 369.26 195.352 377.385 Q195.352 385.753 190.144 390.406 Q184.936 395.024 175.457 395.024 Q172.193 395.024 168.79 394.468 Q165.422 393.912 161.811 392.801 L161.811 385.753 Q164.936 387.454 168.269 388.288 Q171.602 389.121 175.318 389.121 Q181.325 389.121 184.832 385.961 Q188.339 382.801 188.339 377.385 Q188.339 371.968 184.832 368.808 Q181.325 365.649 175.318 365.649 Q172.505 365.649 169.693 366.274 Q166.915 366.899 163.998 368.218 L163.998 342.177 Z" fill="#000000" fill-rule="nonzero" fill-opacity="1" /><path clip-path="url(#clip080)" d="M224.172 346.795 Q218.755 346.795 216.012 352.142 Q213.304 357.454 213.304 368.149 Q213.304 378.808 216.012 384.156 Q218.755 389.468 224.172 389.468 Q229.623 389.468 232.331 384.156 Q235.074 378.808 235.074 368.149 Q235.074 357.454 232.331 352.142 Q229.623 346.795 224.172 346.795 M224.172 341.239 Q232.887 341.239 237.47 348.149 Q242.088 355.024 242.088 368.149 Q242.088 381.239 237.47 388.149 Q232.887 395.024 224.172 395.024 Q215.456 395.024 210.838 388.149 Q206.255 381.239 206.255 368.149 Q206.255 355.024 210.838 348.149 Q215.456 341.239 224.172 341.239 Z" fill="#000000" fill-rule="nonzero" fill-opacity="1" /><path clip-path="url(#clip080)" d="M121.394 158.181 L132.853 158.181 L132.853 118.632 L120.387 121.132 L120.387 114.743 L132.783 112.243 L139.797 112.243 L139.797 158.181 L151.255 158.181 L151.255 164.083 L121.394 164.083 L121.394 158.181 Z" fill="#000000" fill-rule="nonzero" fill-opacity="1" /><path clip-path="url(#clip080)" d="M163.651 112.243 L196.984 112.243 L196.984 115.229 L178.165 164.083 L170.839 164.083 L188.547 118.146 L163.651 118.146 L163.651 112.243 Z" fill="#000000" fill-rule="nonzero" fill-opacity="1" /><path clip-path="url(#clip080)" d="M210.734 112.243 L238.269 112.243 L238.269 118.146 L217.158 118.146 L217.158 130.854 Q218.686 130.334 220.213 130.091 Q221.741 129.813 223.269 129.813 Q231.949 129.813 237.019 134.57 Q242.088 139.327 242.088 147.452 Q242.088 155.82 236.88 160.472 Q231.672 165.09 222.193 165.09 Q218.929 165.09 215.526 164.535 Q212.158 163.979 208.547 162.868 L208.547 155.82 Q211.672 157.521 215.005 158.354 Q218.338 159.188 222.054 159.188 Q228.061 159.188 231.567 156.028 Q235.074 152.868 235.074 147.452 Q235.074 142.035 231.567 138.875 Q228.061 135.715 222.054 135.715 Q219.241 135.715 216.429 136.34 Q213.651 136.965 210.734 138.285 L210.734 112.243 Z" fill="#000000" fill-rule="nonzero" fill-opacity="1" /><path clip-path="url(#clip080)" d="M26.0044 1291.19 Q21.3401 1288.6 19.1207 1284.99 Q16.9014 1281.38 16.9014 1276.49 Q16.9014 1269.9 21.5281 1266.33 Q26.1172 1262.76 34.6183 1262.76 L60.0464 1262.76 L60.0464 1269.71 L34.844 1269.71 Q28.7879 1269.71 25.8539 1271.86 Q22.9199 1274 22.9199 1278.4 Q22.9199 1283.78 26.4934 1286.9 Q30.0669 1290.03 36.2358 1290.03 L60.0464 1290.03 L60.0464 1296.99 L34.844 1296.99 Q28.7503 1296.99 25.8539 1299.13 Q22.9199 1301.27 22.9199 1305.75 Q22.9199 1311.05 26.531 1314.18 Q30.1045 1317.3 36.2358 1317.3 L60.0464 1317.3 L60.0464 1324.26 L17.917 1324.26 L17.917 1317.3 L24.4621 1317.3 Q20.5877 1314.93 18.7446 1311.62 Q16.9014 1308.31 16.9014 1303.76 Q16.9014 1299.17 19.2336 1295.97 Q21.5657 1292.74 26.0044 1291.19 Z" fill="#000000" fill-rule="nonzero" fill-opacity="1" /><path clip-path="url(#clip080)" d="M37.2514 1212.92 L40.6368 1212.92 L40.6368 1244.74 Q47.7838 1244.29 51.5453 1240.45 Q55.2693 1236.58 55.2693 1229.69 Q55.2693 1225.7 54.2913 1221.98 Q53.3133 1218.22 51.3573 1214.53 L57.9024 1214.53 Q59.4822 1218.26 60.3098 1222.17 Q61.1373 1226.08 61.1373 1230.11 Q61.1373 1240.19 55.2693 1246.09 Q49.4012 1251.96 39.3955 1251.96 Q29.0512 1251.96 22.9951 1246.39 Q16.9014 1240.79 16.9014 1231.31 Q16.9014 1222.81 22.3933 1217.88 Q27.8475 1212.92 37.2514 1212.92 M35.2202 1219.84 Q29.5402 1219.91 26.1548 1223.03 Q22.7694 1226.12 22.7694 1231.23 Q22.7694 1237.03 26.042 1240.52 Q29.3145 1243.99 35.2578 1244.51 L35.2202 1219.84 Z" fill="#000000" fill-rule="nonzero" fill-opacity="1" /><path clip-path="url(#clip080)" d="M26.0044 1168.75 Q21.3401 1166.16 19.1207 1162.55 Q16.9014 1158.94 16.9014 1154.05 Q16.9014 1147.46 21.5281 1143.89 Q26.1172 1140.32 34.6183 1140.32 L60.0464 1140.32 L60.0464 1147.28 L34.844 1147.28 Q28.7879 1147.28 25.8539 1149.42 Q22.9199 1151.56 22.9199 1155.97 Q22.9199 1161.34 26.4934 1164.47 Q30.0669 1167.59 36.2358 1167.59 L60.0464 1167.59 L60.0464 1174.55 L34.844 1174.55 Q28.7503 1174.55 25.8539 1176.69 Q22.9199 1178.84 22.9199 1183.31 Q22.9199 1188.62 26.531 1191.74 Q30.1045 1194.86 36.2358 1194.86 L60.0464 1194.86 L60.0464 1201.82 L17.917 1201.82 L17.917 1194.86 L24.4621 1194.86 Q20.5877 1192.49 18.7446 1189.18 Q16.9014 1185.87 16.9014 1181.32 Q16.9014 1176.73 19.2336 1173.53 Q21.5657 1170.3 26.0044 1168.75 Z" fill="#000000" fill-rule="nonzero" fill-opacity="1" /><path clip-path="url(#clip080)" d="M22.7694 1110.19 Q22.7694 1115.75 27.1328 1118.99 Q31.4586 1122.22 39.0194 1122.22 Q46.5801 1122.22 50.9435 1119.03 Q55.2693 1115.79 55.2693 1110.19 Q55.2693 1104.66 50.9059 1101.42 Q46.5425 1098.19 39.0194 1098.19 Q31.5339 1098.19 27.1705 1101.42 Q22.7694 1104.66 22.7694 1110.19 M16.9014 1110.19 Q16.9014 1101.16 22.7694 1096.01 Q28.6375 1090.85 39.0194 1090.85 Q49.3636 1090.85 55.2693 1096.01 Q61.1373 1101.16 61.1373 1110.19 Q61.1373 1119.25 55.2693 1124.41 Q49.3636 1129.52 39.0194 1129.52 Q28.6375 1129.52 22.7694 1124.41 Q16.9014 1119.25 16.9014 1110.19 Z" fill="#000000" fill-rule="nonzero" fill-opacity="1" /><path clip-path="url(#clip080)" d="M24.3869 1054.97 Q23.7098 1056.13 23.4089 1057.53 Q23.0704 1058.88 23.0704 1060.53 Q23.0704 1066.4 26.9072 1069.56 Q30.7063 1072.68 37.8533 1072.68 L60.0464 1072.68 L60.0464 1079.64 L17.917 1079.64 L17.917 1072.68 L24.4621 1072.68 Q20.6254 1070.5 18.7822 1067 Q16.9014 1063.51 16.9014 1058.5 Q16.9014 1057.79 17.0143 1056.92 Q17.0895 1056.06 17.2776 1055.01 L24.3869 1054.97 Z" fill="#000000" fill-rule="nonzero" fill-opacity="1" /><path clip-path="url(#clip080)" d="M63.9585 1030.18 Q71.4816 1033.11 73.7761 1035.9 Q76.0707 1038.68 76.0707 1043.34 L76.0707 1048.87 L70.2779 1048.87 L70.2779 1044.81 Q70.2779 1041.95 68.9237 1040.37 Q67.5696 1038.79 62.5291 1036.87 L59.3694 1035.63 L17.917 1052.67 L17.917 1045.34 L50.8683 1032.17 L17.917 1019.01 L17.917 1011.67 L63.9585 1030.18 Z" fill="#000000" fill-rule="nonzero" fill-opacity="1" /><path clip-path="url(#clip080)" d="M39.0194 947.387 Q31.3834 947.387 27.0576 950.547 Q22.6942 953.669 22.6942 959.161 Q22.6942 964.653 27.0576 967.812 Q31.3834 970.934 39.0194 970.934 Q46.6553 970.934 51.0187 967.812 Q55.3445 964.653 55.3445 959.161 Q55.3445 953.669 51.0187 950.547 Q46.6553 947.387 39.0194 947.387 M24.3117 970.934 Q20.5501 968.753 18.7446 965.443 Q16.9014 962.095 16.9014 957.468 Q16.9014 949.794 22.9951 945.017 Q29.0889 940.202 39.0194 940.202 Q48.9499 940.202 55.0436 945.017 Q61.1373 949.794 61.1373 957.468 Q61.1373 962.095 59.3317 965.443 Q57.4886 968.753 53.727 970.934 L60.0464 970.934 L60.0464 977.893 L1.51666 977.893 L1.51666 970.934 L24.3117 970.934 Z" fill="#000000" fill-rule="nonzero" fill-opacity="1" /><path clip-path="url(#clip080)" d="M38.8689 909.583 Q38.8689 917.972 40.7873 921.207 Q42.7057 924.442 47.3324 924.442 Q51.0187 924.442 53.2004 922.034 Q55.3445 919.589 55.3445 915.414 Q55.3445 909.659 51.282 906.198 Q47.1819 902.7 40.4111 902.7 L38.8689 902.7 L38.8689 909.583 M36.0101 895.779 L60.0464 895.779 L60.0464 902.7 L53.6518 902.7 Q57.4886 905.07 59.3317 908.605 Q61.1373 912.141 61.1373 917.257 Q61.1373 923.727 57.5262 927.564 Q53.8775 931.363 47.7838 931.363 Q40.6744 931.363 37.0633 926.623 Q33.4523 921.846 33.4523 912.405 L33.4523 902.7 L32.7752 902.7 Q27.998 902.7 25.4025 905.859 Q22.7694 908.982 22.7694 914.662 Q22.7694 918.273 23.6346 921.696 Q24.4998 925.119 26.2301 928.278 L19.8354 928.278 Q18.3684 924.479 17.6537 920.906 Q16.9014 917.332 16.9014 913.947 Q16.9014 904.806 21.641 900.292 Q26.3805 895.779 36.0101 895.779 Z" fill="#000000" fill-rule="nonzero" fill-opacity="1" /><path clip-path="url(#clip080)" d="M34.6183 846.502 L60.0464 846.502 L60.0464 853.423 L34.844 853.423 Q28.8632 853.423 25.8915 855.756 Q22.9199 858.088 22.9199 862.752 Q22.9199 868.357 26.4934 871.592 Q30.0669 874.827 36.2358 874.827 L60.0464 874.827 L60.0464 881.786 L17.917 881.786 L17.917 874.827 L24.4621 874.827 Q20.663 872.344 18.7822 868.996 Q16.9014 865.611 16.9014 861.21 Q16.9014 853.95 21.4153 850.226 Q25.8915 846.502 34.6183 846.502 Z" fill="#000000" fill-rule="nonzero" fill-opacity="1" /><path clip-path="url(#clip080)" d="M24.3117 804.975 L1.51666 804.975 L1.51666 798.053 L60.0464 798.053 L60.0464 804.975 L53.727 804.975 Q57.4886 807.156 59.3317 810.504 Q61.1373 813.814 61.1373 818.479 Q61.1373 826.115 55.0436 830.929 Q48.9499 835.707 39.0194 835.707 Q29.0889 835.707 22.9951 830.929 Q16.9014 826.115 16.9014 818.479 Q16.9014 813.814 18.7446 810.504 Q20.5501 807.156 24.3117 804.975 M39.0194 828.56 Q46.6553 828.56 51.0187 825.437 Q55.3445 822.278 55.3445 816.786 Q55.3445 811.294 51.0187 808.134 Q46.6553 804.975 39.0194 804.975 Q31.3834 804.975 27.0576 808.134 Q22.6942 811.294 22.6942 816.786 Q22.6942 822.278 27.0576 825.437 Q31.3834 828.56 39.0194 828.56 Z" fill="#000000" fill-rule="nonzero" fill-opacity="1" /><path clip-path="url(#clip080)" d="M17.917 787.822 L17.917 780.901 L50.793 772.249 L17.917 763.635 L17.917 755.473 L50.793 746.821 L17.917 738.207 L17.917 731.286 L60.0464 742.307 L60.0464 750.47 L25.5154 759.535 L60.0464 768.638 L60.0464 776.801 L17.917 787.822 Z" fill="#000000" fill-rule="nonzero" fill-opacity="1" /><path clip-path="url(#clip080)" d="M17.917 720.791 L17.917 713.87 L60.0464 713.87 L60.0464 720.791 L17.917 720.791 M1.51666 720.791 L1.51666 713.87 L10.2811 713.87 L10.2811 720.791 L1.51666 720.791 Z" fill="#000000" fill-rule="nonzero" fill-opacity="1" /><path clip-path="url(#clip080)" d="M24.3117 671.665 L1.51666 671.665 L1.51666 664.744 L60.0464 664.744 L60.0464 671.665 L53.727 671.665 Q57.4886 673.847 59.3317 677.195 Q61.1373 680.505 61.1373 685.169 Q61.1373 692.805 55.0436 697.62 Q48.9499 702.397 39.0194 702.397 Q29.0889 702.397 22.9951 697.62 Q16.9014 692.805 16.9014 685.169 Q16.9014 680.505 18.7446 677.195 Q20.5501 673.847 24.3117 671.665 M39.0194 695.25 Q46.6553 695.25 51.0187 692.128 Q55.3445 688.968 55.3445 683.476 Q55.3445 677.985 51.0187 674.825 Q46.6553 671.665 39.0194 671.665 Q31.3834 671.665 27.0576 674.825 Q22.6942 677.985 22.6942 683.476 Q22.6942 688.968 27.0576 692.128 Q31.3834 695.25 39.0194 695.25 Z" fill="#000000" fill-rule="nonzero" fill-opacity="1" /><path clip-path="url(#clip080)" d="M5.9553 643.642 L17.917 643.642 L17.917 629.385 L23.2961 629.385 L23.2961 643.642 L46.1663 643.642 Q51.3196 643.642 52.7866 642.25 Q54.2537 640.82 54.2537 636.495 L54.2537 629.385 L60.0464 629.385 L60.0464 636.495 Q60.0464 644.507 57.0748 647.554 Q54.0656 650.6 46.1663 650.6 L23.2961 650.6 L23.2961 655.679 L17.917 655.679 L17.917 650.6 L5.9553 650.6 L5.9553 643.642 Z" fill="#000000" fill-rule="nonzero" fill-opacity="1" /><path clip-path="url(#clip080)" d="M34.6183 585.262 L60.0464 585.262 L60.0464 592.184 L34.844 592.184 Q28.8632 592.184 25.8915 594.516 Q22.9199 596.848 22.9199 601.512 Q22.9199 607.117 26.4934 610.352 Q30.0669 613.587 36.2358 613.587 L60.0464 613.587 L60.0464 620.546 L1.51666 620.546 L1.51666 613.587 L24.4621 613.587 Q20.663 611.104 18.7822 607.756 Q16.9014 604.371 16.9014 599.97 Q16.9014 592.71 21.4153 588.986 Q25.8915 585.262 34.6183 585.262 Z" fill="#000000" fill-rule="nonzero" fill-opacity="1" /><path clip-path="url(#clip080)" d="M1.51666 547.609 L1.51666 531.66 L6.89569 531.66 L6.89569 540.688 L64.8236 540.688 L64.8236 531.66 L70.2026 531.66 L70.2026 547.609 L1.51666 547.609 Z" fill="#000000" fill-rule="nonzero" fill-opacity="1" /><path clip-path="url(#clip080)" d="M52.0343 478.321 L36.9505 478.321 L36.9505 490.734 L30.7063 490.734 L30.7063 470.798 L54.8179 470.798 Q57.94 475.199 59.5574 480.503 Q61.1373 485.807 61.1373 491.825 Q61.1373 504.991 53.4637 512.439 Q45.7525 519.849 32.0229 519.849 Q18.2556 519.849 10.582 512.439 Q2.87082 504.991 2.87082 491.825 Q2.87082 486.333 4.22498 481.406 Q5.57914 476.44 8.21223 472.265 L16.2996 472.265 Q12.7261 476.478 10.9205 481.218 Q9.115 485.957 9.115 491.186 Q9.115 501.492 14.8702 506.683 Q20.6254 511.837 32.0229 511.837 Q43.3828 511.837 49.1379 506.683 Q54.8931 501.492 54.8931 491.186 Q54.8931 487.161 54.216 484.001 Q53.5013 480.842 52.0343 478.321 Z" fill="#000000" fill-rule="nonzero" fill-opacity="1" /><path clip-path="url(#clip080)" d="M33.2266 449.32 L53.8023 449.32 L53.8023 437.132 Q53.8023 431.001 51.282 428.067 Q48.7242 425.095 43.4956 425.095 Q38.2294 425.095 35.7468 428.067 Q33.2266 431.001 33.2266 437.132 L33.2266 449.32 M10.1306 449.32 L27.0576 449.32 L27.0576 438.073 Q27.0576 432.506 24.9888 429.797 Q22.8823 427.051 18.5941 427.051 Q14.3436 427.051 12.2371 429.797 Q10.1306 432.506 10.1306 438.073 L10.1306 449.32 M3.88644 456.918 L3.88644 437.508 Q3.88644 428.819 7.49753 424.117 Q11.1086 419.415 17.7666 419.415 Q22.9199 419.415 25.9668 421.823 Q29.0136 424.23 29.7659 428.894 Q30.9696 423.29 34.8064 420.205 Q38.6056 417.083 44.3231 417.083 Q51.8463 417.083 55.9463 422.199 Q60.0464 427.315 60.0464 436.756 L60.0464 456.918 L3.88644 456.918 Z" fill="#000000" fill-rule="nonzero" fill-opacity="1" /><path clip-path="url(#clip080)" d="M3.88644 392.069 L3.88644 385.674 L67.1934 405.234 L67.1934 411.629 L3.88644 392.069 Z" fill="#000000" fill-rule="nonzero" fill-opacity="1" /><path clip-path="url(#clip080)" d="M19.1584 351.557 L25.7035 351.557 Q24.1988 354.491 23.4465 357.651 Q22.6942 360.81 22.6942 364.196 Q22.6942 369.349 24.2741 371.945 Q25.8539 374.502 29.0136 374.502 Q31.421 374.502 32.8128 372.659 Q34.167 370.816 35.4083 365.249 L35.9349 362.879 Q37.5147 355.507 40.4111 352.422 Q43.2699 349.3 48.4232 349.3 Q54.2913 349.3 57.7143 353.964 Q61.1373 358.591 61.1373 366.716 Q61.1373 370.101 60.4602 373.788 Q59.8207 377.436 58.5042 381.499 L51.3573 381.499 Q53.3509 377.662 54.3665 373.938 Q55.3445 370.214 55.3445 366.566 Q55.3445 361.675 53.6894 359.042 Q51.9967 356.409 48.9499 356.409 Q46.1287 356.409 44.6241 358.328 Q43.1195 360.208 41.7277 366.641 L41.1634 369.048 Q39.8093 375.48 37.0257 378.339 Q34.2046 381.198 29.3145 381.198 Q23.3713 381.198 20.1364 376.985 Q16.9014 372.772 16.9014 365.023 Q16.9014 361.186 17.4657 357.801 Q18.0299 354.416 19.1584 351.557 Z" fill="#000000" fill-rule="nonzero" fill-opacity="1" /><path clip-path="url(#clip080)" d="M1.51666 322.104 L70.2026 322.104 L70.2026 338.053 L64.8236 338.053 L64.8236 329.063 L6.89569 329.063 L6.89569 338.053 L1.51666 338.053 L1.51666 322.104 Z" fill="#000000" fill-rule="nonzero" fill-opacity="1" /><polyline clip-path="url(#clip082)" style="stroke:#009af9; stroke-linecap:round; stroke-linejoin:round; stroke-width:6; stroke-opacity:1; fill:none" points="334.469,1555.2 586.374,841.299 888.66,345.839 1190.95,325.145 1493.23,124.919 1795.52,210.822 2097.8,98.4309 2400.09,177.16 2702.37,92.9125 "/>
<circle clip-path="url(#clip082)" cx="334.469" cy="1555.2" r="18" fill="#009af9" fill-rule="evenodd" fill-opacity="1" stroke="#000000" stroke-opacity="1" stroke-width="3.6"/>
<circle clip-path="url(#clip082)" cx="586.374" cy="841.299" r="18" fill="#009af9" fill-rule="evenodd" fill-opacity="1" stroke="#000000" stroke-opacity="1" stroke-width="3.6"/>
<circle clip-path="url(#clip082)" cx="888.66" cy="345.839" r="18" fill="#009af9" fill-rule="evenodd" fill-opacity="1" stroke="#000000" stroke-opacity="1" stroke-width="3.6"/>
<circle clip-path="url(#clip082)" cx="1190.95" cy="325.145" r="18" fill="#009af9" fill-rule="evenodd" fill-opacity="1" stroke="#000000" stroke-opacity="1" stroke-width="3.6"/>
<circle clip-path="url(#clip082)" cx="1493.23" cy="124.919" r="18" fill="#009af9" fill-rule="evenodd" fill-opacity="1" stroke="#000000" stroke-opacity="1" stroke-width="3.6"/>
<circle clip-path="url(#clip082)" cx="1795.52" cy="210.822" r="18" fill="#009af9" fill-rule="evenodd" fill-opacity="1" stroke="#000000" stroke-opacity="1" stroke-width="3.6"/>
<circle clip-path="url(#clip082)" cx="2097.8" cy="98.4309" r="18" fill="#009af9" fill-rule="evenodd" fill-opacity="1" stroke="#000000" stroke-opacity="1" stroke-width="3.6"/>
<circle clip-path="url(#clip082)" cx="2400.09" cy="177.16" r="18" fill="#009af9" fill-rule="evenodd" fill-opacity="1" stroke="#000000" stroke-opacity="1" stroke-width="3.6"/>
<circle clip-path="url(#clip082)" cx="2702.37" cy="92.9125" r="18" fill="#009af9" fill-rule="evenodd" fill-opacity="1" stroke="#000000" stroke-opacity="1" stroke-width="3.6"/>
<polyline clip-path="url(#clip082)" style="stroke:#e26f46; stroke-linecap:round; stroke-linejoin:round; stroke-width:6; stroke-opacity:1; fill:none" points="334.469,1555.1 586.374,1037.57 888.66,922.604 1190.95,913.682 1493.23,901.634 1795.52,681.634 2097.8,473.59 2400.09,263.063 2702.37,113.79 "/>
<circle clip-path="url(#clip082)" cx="334.469" cy="1555.1" r="18" fill="#e26f46" fill-rule="evenodd" fill-opacity="1" stroke="#000000" stroke-opacity="1" stroke-width="3.6"/>
<circle clip-path="url(#clip082)" cx="586.374" cy="1037.57" r="18" fill="#e26f46" fill-rule="evenodd" fill-opacity="1" stroke="#000000" stroke-opacity="1" stroke-width="3.6"/>
<circle clip-path="url(#clip082)" cx="888.66" cy="922.604" r="18" fill="#e26f46" fill-rule="evenodd" fill-opacity="1" stroke="#000000" stroke-opacity="1" stroke-width="3.6"/>
<circle clip-path="url(#clip082)" cx="1190.95" cy="913.682" r="18" fill="#e26f46" fill-rule="evenodd" fill-opacity="1" stroke="#000000" stroke-opacity="1" stroke-width="3.6"/>
<circle clip-path="url(#clip082)" cx="1493.23" cy="901.634" r="18" fill="#e26f46" fill-rule="evenodd" fill-opacity="1" stroke="#000000" stroke-opacity="1" stroke-width="3.6"/>
<circle clip-path="url(#clip082)" cx="1795.52" cy="681.634" r="18" fill="#e26f46" fill-rule="evenodd" fill-opacity="1" stroke="#000000" stroke-opacity="1" stroke-width="3.6"/>
<circle clip-path="url(#clip082)" cx="2097.8" cy="473.59" r="18" fill="#e26f46" fill-rule="evenodd" fill-opacity="1" stroke="#000000" stroke-opacity="1" stroke-width="3.6"/>
<circle clip-path="url(#clip082)" cx="2400.09" cy="263.063" r="18" fill="#e26f46" fill-rule="evenodd" fill-opacity="1" stroke="#000000" stroke-opacity="1" stroke-width="3.6"/>
<circle clip-path="url(#clip082)" cx="2702.37" cy="113.79" r="18" fill="#e26f46" fill-rule="evenodd" fill-opacity="1" stroke="#000000" stroke-opacity="1" stroke-width="3.6"/>
<polyline clip-path="url(#clip082)" style="stroke:#3da44d; stroke-linecap:round; stroke-linejoin:round; stroke-width:6; stroke-opacity:1; fill:none" points="334.469,1555.2 586.374,1334.46 888.66,1319.38 1190.95,1108.21 1493.23,922.788 1795.52,722.562 2097.8,504.953 2400.09,297.369 2702.37,91.165 "/>
<circle clip-path="url(#clip082)" cx="334.469" cy="1555.2" r="18" fill="#3da44d" fill-rule="evenodd" fill-opacity="1" stroke="#000000" stroke-opacity="1" stroke-width="3.6"/>
<circle clip-path="url(#clip082)" cx="586.374" cy="1334.46" r="18" fill="#3da44d" fill-rule="evenodd" fill-opacity="1" stroke="#000000" stroke-opacity="1" stroke-width="3.6"/>
<circle clip-path="url(#clip082)" cx="888.66" cy="1319.38" r="18" fill="#3da44d" fill-rule="evenodd" fill-opacity="1" stroke="#000000" stroke-opacity="1" stroke-width="3.6"/>
<circle clip-path="url(#clip082)" cx="1190.95" cy="1108.21" r="18" fill="#3da44d" fill-rule="evenodd" fill-opacity="1" stroke="#000000" stroke-opacity="1" stroke-width="3.6"/>
<circle clip-path="url(#clip082)" cx="1493.23" cy="922.788" r="18" fill="#3da44d" fill-rule="evenodd" fill-opacity="1" stroke="#000000" stroke-opacity="1" stroke-width="3.6"/>
<circle clip-path="url(#clip082)" cx="1795.52" cy="722.562" r="18" fill="#3da44d" fill-rule="evenodd" fill-opacity="1" stroke="#000000" stroke-opacity="1" stroke-width="3.6"/>
<circle clip-path="url(#clip082)" cx="2097.8" cy="504.953" r="18" fill="#3da44d" fill-rule="evenodd" fill-opacity="1" stroke="#000000" stroke-opacity="1" stroke-width="3.6"/>
<circle clip-path="url(#clip082)" cx="2400.09" cy="297.369" r="18" fill="#3da44d" fill-rule="evenodd" fill-opacity="1" stroke="#000000" stroke-opacity="1" stroke-width="3.6"/>
<circle clip-path="url(#clip082)" cx="2702.37" cy="91.165" r="18" fill="#3da44d" fill-rule="evenodd" fill-opacity="1" stroke="#000000" stroke-opacity="1" stroke-width="3.6"/>
<polyline clip-path="url(#clip082)" style="stroke:#808080; stroke-linecap:round; stroke-linejoin:round; stroke-width:6; stroke-opacity:1; fill:none" stroke-dasharray="24, 15" points="1493.23,3150.99 1493.23,-1504.63 "/>
<path clip-path="url(#clip080)" d="M2144.47 1547.39 L2670.47 1547.39 L2670.47 1236.35 L2144.47 1236.35  Z" fill="#ffffff" fill-rule="evenodd" fill-opacity="1"/>
<polyline clip-path="url(#clip080)" style="stroke:#000000; stroke-linecap:round; stroke-linejoin:round; stroke-width:4; stroke-opacity:1; fill:none" points="2144.47,1547.39 2670.47,1547.39 2670.47,1236.35 2144.47,1236.35 2144.47,1547.39 "/>
<polyline clip-path="url(#clip080)" style="stroke:#009af9; stroke-linecap:round; stroke-linejoin:round; stroke-width:9; stroke-opacity:1; fill:none" points="2171.9,1314.11 2336.48,1314.11 "/>
<circle clip-path="url(#clip080)" cx="2254.19" cy="1314.11" r="15.2387" fill="#009af9" fill-rule="evenodd" fill-opacity="1" stroke="#000000" stroke-opacity="1" stroke-width="6.28364"/>
<path clip-path="url(#clip080)" d="M2363.91 1331.21 L2371.23 1331.21 L2371.23 1340.03 L2363.91 1340.03 L2363.91 1331.21 M2363.91 1303.26 L2371.23 1303.26 L2371.23 1312.08 L2363.91 1312.08 L2363.91 1303.26 Z" fill="#000000" fill-rule="nonzero" fill-opacity="1" /><path clip-path="url(#clip080)" d="M2418.56 1316.56 L2418.56 1340.03 L2412.17 1340.03 L2412.17 1316.76 Q2412.17 1311.24 2410.02 1308.5 Q2407.86 1305.76 2403.56 1305.76 Q2398.39 1305.76 2395.4 1309.06 Q2392.41 1312.35 2392.41 1318.05 L2392.41 1340.03 L2385.99 1340.03 L2385.99 1301.14 L2392.41 1301.14 L2392.41 1307.18 Q2394.71 1303.67 2397.8 1301.94 Q2400.92 1300.2 2404.98 1300.2 Q2411.68 1300.2 2415.12 1304.37 Q2418.56 1308.5 2418.56 1316.56 Z" fill="#000000" fill-rule="nonzero" fill-opacity="1" /><path clip-path="url(#clip080)" d="M2430.64 1324.68 L2430.64 1301.14 L2437.03 1301.14 L2437.03 1324.44 Q2437.03 1329.96 2439.18 1332.74 Q2441.34 1335.48 2445.64 1335.48 Q2450.82 1335.48 2453.8 1332.18 Q2456.82 1328.88 2456.82 1323.19 L2456.82 1301.14 L2463.21 1301.14 L2463.21 1340.03 L2456.82 1340.03 L2456.82 1334.06 Q2454.5 1337.6 2451.41 1339.33 Q2448.35 1341.03 2444.29 1341.03 Q2437.59 1341.03 2434.11 1336.87 Q2430.64 1332.7 2430.64 1324.68 M2446.72 1300.2 L2446.72 1300.2 Z" fill="#000000" fill-rule="nonzero" fill-opacity="1" /><path clip-path="url(#clip080)" d="M2506.65 1308.6 Q2509.05 1304.3 2512.38 1302.25 Q2515.71 1300.2 2520.23 1300.2 Q2526.3 1300.2 2529.6 1304.47 Q2532.9 1308.71 2532.9 1316.56 L2532.9 1340.03 L2526.48 1340.03 L2526.48 1316.76 Q2526.48 1311.17 2524.5 1308.47 Q2522.52 1305.76 2518.45 1305.76 Q2513.49 1305.76 2510.61 1309.06 Q2507.73 1312.35 2507.73 1318.05 L2507.73 1340.03 L2501.3 1340.03 L2501.3 1316.76 Q2501.3 1311.14 2499.32 1308.47 Q2497.34 1305.76 2493.21 1305.76 Q2488.32 1305.76 2485.43 1309.09 Q2482.55 1312.39 2482.55 1318.05 L2482.55 1340.03 L2476.13 1340.03 L2476.13 1301.14 L2482.55 1301.14 L2482.55 1307.18 Q2484.74 1303.6 2487.8 1301.9 Q2490.85 1300.2 2495.05 1300.2 Q2499.29 1300.2 2502.24 1302.35 Q2505.23 1304.51 2506.65 1308.6 Z" fill="#000000" fill-rule="nonzero" fill-opacity="1" /><path clip-path="url(#clip080)" d="M2563.32 1320.48 Q2555.57 1320.48 2552.59 1322.25 Q2549.6 1324.02 2549.6 1328.29 Q2549.6 1331.69 2551.82 1333.71 Q2554.08 1335.69 2557.93 1335.69 Q2563.25 1335.69 2566.44 1331.94 Q2569.67 1328.15 2569.67 1321.9 L2569.67 1320.48 L2563.32 1320.48 M2576.06 1317.84 L2576.06 1340.03 L2569.67 1340.03 L2569.67 1334.13 Q2567.48 1337.67 2564.22 1339.37 Q2560.95 1341.03 2556.23 1341.03 Q2550.26 1341.03 2546.72 1337.7 Q2543.21 1334.33 2543.21 1328.71 Q2543.21 1322.15 2547.59 1318.81 Q2552 1315.48 2560.71 1315.48 L2569.67 1315.48 L2569.67 1314.85 Q2569.67 1310.44 2566.75 1308.05 Q2563.87 1305.62 2558.63 1305.62 Q2555.29 1305.62 2552.14 1306.42 Q2548.98 1307.22 2546.06 1308.81 L2546.06 1302.91 Q2549.57 1301.56 2552.86 1300.9 Q2556.16 1300.2 2559.29 1300.2 Q2567.73 1300.2 2571.89 1304.58 Q2576.06 1308.95 2576.06 1317.84 Z" fill="#000000" fill-rule="nonzero" fill-opacity="1" /><polyline clip-path="url(#clip080)" style="stroke:#e26f46; stroke-linecap:round; stroke-linejoin:round; stroke-width:9; stroke-opacity:1; fill:none" points="2171.9,1391.87 2336.48,1391.87 "/>
<circle clip-path="url(#clip080)" cx="2254.19" cy="1391.87" r="15.2387" fill="#e26f46" fill-rule="evenodd" fill-opacity="1" stroke="#000000" stroke-opacity="1" stroke-width="6.28364"/>
<path clip-path="url(#clip080)" d="M2363.91 1408.97 L2371.23 1408.97 L2371.23 1417.79 L2363.91 1417.79 L2363.91 1408.97 M2363.91 1381.02 L2371.23 1381.02 L2371.23 1389.84 L2363.91 1389.84 L2363.91 1381.02 Z" fill="#000000" fill-rule="nonzero" fill-opacity="1" /><path clip-path="url(#clip080)" d="M2411.02 1380.05 L2411.02 1386.09 Q2408.32 1384.7 2405.4 1384 Q2402.48 1383.31 2399.36 1383.31 Q2394.6 1383.31 2392.21 1384.77 Q2389.84 1386.23 2389.84 1389.14 Q2389.84 1391.36 2391.55 1392.65 Q2393.25 1393.9 2398.39 1395.04 L2400.57 1395.53 Q2407.38 1396.99 2410.23 1399.66 Q2413.11 1402.3 2413.11 1407.06 Q2413.11 1412.48 2408.8 1415.64 Q2404.53 1418.79 2397.03 1418.79 Q2393.91 1418.79 2390.5 1418.17 Q2387.14 1417.58 2383.39 1416.36 L2383.39 1409.77 Q2386.93 1411.61 2390.37 1412.54 Q2393.8 1413.45 2397.17 1413.45 Q2401.68 1413.45 2404.12 1411.92 Q2406.55 1410.36 2406.55 1407.54 Q2406.55 1404.94 2404.77 1403.55 Q2403.04 1402.16 2397.1 1400.88 L2394.88 1400.36 Q2388.94 1399.11 2386.3 1396.54 Q2383.66 1393.93 2383.66 1389.42 Q2383.66 1383.93 2387.55 1380.95 Q2391.44 1377.96 2398.59 1377.96 Q2402.14 1377.96 2405.26 1378.48 Q2408.39 1379 2411.02 1380.05 Z" fill="#000000" fill-rule="nonzero" fill-opacity="1" /><path clip-path="url(#clip080)" d="M2438.35 1383.38 Q2433.21 1383.38 2430.23 1387.41 Q2427.24 1391.4 2427.24 1398.38 Q2427.24 1405.36 2430.19 1409.39 Q2433.18 1413.38 2438.35 1413.38 Q2443.46 1413.38 2446.44 1409.35 Q2449.43 1405.32 2449.43 1398.38 Q2449.43 1391.47 2446.44 1387.44 Q2443.46 1383.38 2438.35 1383.38 M2438.35 1377.96 Q2446.68 1377.96 2451.44 1383.38 Q2456.2 1388.79 2456.2 1398.38 Q2456.2 1407.93 2451.44 1413.38 Q2446.68 1418.79 2438.35 1418.79 Q2429.98 1418.79 2425.23 1413.38 Q2420.5 1407.93 2420.5 1398.38 Q2420.5 1388.79 2425.23 1383.38 Q2429.98 1377.96 2438.35 1377.96 Z" fill="#000000" fill-rule="nonzero" fill-opacity="1" /><path clip-path="url(#clip080)" d="M2494.77 1380.39 L2494.77 1386.36 Q2492.07 1384.87 2489.32 1384.14 Q2486.61 1383.38 2483.84 1383.38 Q2477.62 1383.38 2474.18 1387.34 Q2470.75 1391.26 2470.75 1398.38 Q2470.75 1405.5 2474.18 1409.45 Q2477.62 1413.38 2483.84 1413.38 Q2486.61 1413.38 2489.32 1412.65 Q2492.07 1411.89 2494.77 1410.39 L2494.77 1416.29 Q2492.1 1417.54 2489.22 1418.17 Q2486.37 1418.79 2483.14 1418.79 Q2474.36 1418.79 2469.18 1413.27 Q2464.01 1407.75 2464.01 1398.38 Q2464.01 1388.86 2469.22 1383.41 Q2474.46 1377.96 2483.56 1377.96 Q2486.51 1377.96 2489.32 1378.59 Q2492.14 1379.18 2494.77 1380.39 Z" fill="#000000" fill-rule="nonzero" fill-opacity="1" /><path clip-path="url(#clip080)" d="M2505.64 1363.76 L2512.07 1363.76 L2512.07 1395.67 L2531.13 1378.9 L2539.29 1378.9 L2518.66 1397.09 L2540.16 1417.79 L2531.82 1417.79 L2512.07 1398.79 L2512.07 1417.79 L2505.64 1417.79 L2505.64 1363.76 Z" fill="#000000" fill-rule="nonzero" fill-opacity="1" /><path clip-path="url(#clip080)" d="M2577.79 1396.75 L2577.79 1399.87 L2548.42 1399.87 Q2548.84 1406.47 2552.38 1409.94 Q2555.95 1413.38 2562.31 1413.38 Q2565.99 1413.38 2569.43 1412.48 Q2572.9 1411.57 2576.3 1409.77 L2576.3 1415.81 Q2572.86 1417.27 2569.25 1418.03 Q2565.64 1418.79 2561.93 1418.79 Q2552.62 1418.79 2547.17 1413.38 Q2541.75 1407.96 2541.75 1398.73 Q2541.75 1389.18 2546.89 1383.59 Q2552.07 1377.96 2560.82 1377.96 Q2568.66 1377.96 2573.21 1383.03 Q2577.79 1388.07 2577.79 1396.75 M2571.41 1394.87 Q2571.34 1389.63 2568.45 1386.5 Q2565.61 1383.38 2560.89 1383.38 Q2555.54 1383.38 2552.31 1386.4 Q2549.11 1389.42 2548.63 1394.91 L2571.41 1394.87 Z" fill="#000000" fill-rule="nonzero" fill-opacity="1" /><path clip-path="url(#clip080)" d="M2594.6 1367.86 L2594.6 1378.9 L2607.76 1378.9 L2607.76 1383.86 L2594.6 1383.86 L2594.6 1404.98 Q2594.6 1409.73 2595.88 1411.09 Q2597.2 1412.44 2601.2 1412.44 L2607.76 1412.44 L2607.76 1417.79 L2601.2 1417.79 Q2593.8 1417.79 2590.99 1415.04 Q2588.18 1412.27 2588.18 1404.98 L2588.18 1383.86 L2583.49 1383.86 L2583.49 1378.9 L2588.18 1378.9 L2588.18 1367.86 L2594.6 1367.86 Z" fill="#000000" fill-rule="nonzero" fill-opacity="1" /><path clip-path="url(#clip080)" d="M2640.95 1380.05 L2640.95 1386.09 Q2638.25 1384.7 2635.33 1384 Q2632.41 1383.31 2629.29 1383.31 Q2624.53 1383.31 2622.13 1384.77 Q2619.77 1386.23 2619.77 1389.14 Q2619.77 1391.36 2621.47 1392.65 Q2623.18 1393.9 2628.32 1395.04 L2630.5 1395.53 Q2637.31 1396.99 2640.16 1399.66 Q2643.04 1402.3 2643.04 1407.06 Q2643.04 1412.48 2638.73 1415.64 Q2634.46 1418.79 2626.96 1418.79 Q2623.84 1418.79 2620.43 1418.17 Q2617.07 1417.58 2613.32 1416.36 L2613.32 1409.77 Q2616.86 1411.61 2620.29 1412.54 Q2623.73 1413.45 2627.1 1413.45 Q2631.61 1413.45 2634.04 1411.92 Q2636.47 1410.36 2636.47 1407.54 Q2636.47 1404.94 2634.7 1403.55 Q2632.97 1402.16 2627.03 1400.88 L2624.81 1400.36 Q2618.87 1399.11 2616.23 1396.54 Q2613.59 1393.93 2613.59 1389.42 Q2613.59 1383.93 2617.48 1380.95 Q2621.37 1377.96 2628.52 1377.96 Q2632.07 1377.96 2635.19 1378.48 Q2638.32 1379 2640.95 1380.05 Z" fill="#000000" fill-rule="nonzero" fill-opacity="1" /><polyline clip-path="url(#clip080)" style="stroke:#3da44d; stroke-linecap:round; stroke-linejoin:round; stroke-width:9; stroke-opacity:1; fill:none" points="2171.9,1469.63 2336.48,1469.63 "/>
<circle clip-path="url(#clip080)" cx="2254.19" cy="1469.63" r="15.2387" fill="#3da44d" fill-rule="evenodd" fill-opacity="1" stroke="#000000" stroke-opacity="1" stroke-width="6.28364"/>
<path clip-path="url(#clip080)" d="M2363.91 1486.73 L2371.23 1486.73 L2371.23 1495.55 L2363.91 1495.55 L2363.91 1486.73 M2363.91 1458.78 L2371.23 1458.78 L2371.23 1467.6 L2363.91 1467.6 L2363.91 1458.78 Z" fill="#000000" fill-rule="nonzero" fill-opacity="1" /><path clip-path="url(#clip080)" d="M2414.22 1458.15 L2414.22 1464.12 Q2411.51 1462.63 2408.77 1461.9 Q2406.06 1461.14 2403.28 1461.14 Q2397.07 1461.14 2393.63 1465.1 Q2390.19 1469.02 2390.19 1476.14 Q2390.19 1483.26 2393.63 1487.21 Q2397.07 1491.14 2403.28 1491.14 Q2406.06 1491.14 2408.77 1490.41 Q2411.51 1489.65 2414.22 1488.15 L2414.22 1494.05 Q2411.55 1495.3 2408.66 1495.93 Q2405.82 1496.55 2402.59 1496.55 Q2393.8 1496.55 2388.63 1491.03 Q2383.46 1485.51 2383.46 1476.14 Q2383.46 1466.62 2388.66 1461.17 Q2393.91 1455.72 2403 1455.72 Q2405.96 1455.72 2408.77 1456.35 Q2411.58 1456.94 2414.22 1458.15 Z" fill="#000000" fill-rule="nonzero" fill-opacity="1" /><path clip-path="url(#clip080)" d="M2440.4 1461.14 Q2435.26 1461.14 2432.27 1465.17 Q2429.29 1469.16 2429.29 1476.14 Q2429.29 1483.12 2432.24 1487.15 Q2435.23 1491.14 2440.4 1491.14 Q2445.5 1491.14 2448.49 1487.11 Q2451.48 1483.08 2451.48 1476.14 Q2451.48 1469.23 2448.49 1465.2 Q2445.5 1461.14 2440.4 1461.14 M2440.4 1455.72 Q2448.73 1455.72 2453.49 1461.14 Q2458.25 1466.55 2458.25 1476.14 Q2458.25 1485.69 2453.49 1491.14 Q2448.73 1496.55 2440.4 1496.55 Q2432.03 1496.55 2427.27 1491.14 Q2422.55 1485.69 2422.55 1476.14 Q2422.55 1466.55 2427.27 1461.14 Q2432.03 1455.72 2440.4 1455.72 Z" fill="#000000" fill-rule="nonzero" fill-opacity="1" /><path clip-path="url(#clip080)" d="M2491.37 1462.63 Q2490.3 1462.01 2489.01 1461.73 Q2487.76 1461.42 2486.23 1461.42 Q2480.82 1461.42 2477.9 1464.96 Q2475.02 1468.46 2475.02 1475.06 L2475.02 1495.55 L2468.59 1495.55 L2468.59 1456.66 L2475.02 1456.66 L2475.02 1462.7 Q2477.03 1459.16 2480.26 1457.46 Q2483.49 1455.72 2488.11 1455.72 Q2488.77 1455.72 2489.57 1455.83 Q2490.36 1455.9 2491.34 1456.07 L2491.37 1462.63 Z" fill="#000000" fill-rule="nonzero" fill-opacity="1" /><path clip-path="url(#clip080)" d="M2529.77 1474.51 L2529.77 1477.63 L2500.4 1477.63 Q2500.82 1484.23 2504.36 1487.7 Q2507.93 1491.14 2514.29 1491.14 Q2517.97 1491.14 2521.41 1490.24 Q2524.88 1489.33 2528.28 1487.53 L2528.28 1493.57 Q2524.84 1495.03 2521.23 1495.79 Q2517.62 1496.55 2513.91 1496.55 Q2504.6 1496.55 2499.15 1491.14 Q2493.73 1485.72 2493.73 1476.49 Q2493.73 1466.94 2498.87 1461.35 Q2504.05 1455.72 2512.79 1455.72 Q2520.64 1455.72 2525.19 1460.79 Q2529.77 1465.83 2529.77 1474.51 M2523.39 1472.63 Q2523.32 1467.39 2520.43 1464.26 Q2517.59 1461.14 2512.86 1461.14 Q2507.52 1461.14 2504.29 1464.16 Q2501.09 1467.18 2500.61 1472.67 L2523.39 1472.63 Z" fill="#000000" fill-rule="nonzero" fill-opacity="1" /><path clip-path="url(#clip080)" d="M2565.05 1457.81 L2565.05 1463.85 Q2562.34 1462.46 2559.43 1461.76 Q2556.51 1461.07 2553.39 1461.07 Q2548.63 1461.07 2546.23 1462.53 Q2543.87 1463.99 2543.87 1466.9 Q2543.87 1469.12 2545.57 1470.41 Q2547.27 1471.66 2552.41 1472.8 L2554.6 1473.29 Q2561.41 1474.75 2564.25 1477.42 Q2567.13 1480.06 2567.13 1484.82 Q2567.13 1490.24 2562.83 1493.4 Q2558.56 1496.55 2551.06 1496.55 Q2547.93 1496.55 2544.53 1495.93 Q2541.16 1495.34 2537.41 1494.12 L2537.41 1487.53 Q2540.95 1489.37 2544.39 1490.3 Q2547.83 1491.21 2551.2 1491.21 Q2555.71 1491.21 2558.14 1489.68 Q2560.57 1488.12 2560.57 1485.3 Q2560.57 1482.7 2558.8 1481.31 Q2557.07 1479.92 2551.13 1478.64 L2548.91 1478.12 Q2542.97 1476.87 2540.33 1474.3 Q2537.69 1471.69 2537.69 1467.18 Q2537.69 1461.69 2541.58 1458.71 Q2545.47 1455.72 2552.62 1455.72 Q2556.16 1455.72 2559.29 1456.24 Q2562.41 1456.76 2565.05 1457.81 Z" fill="#000000" fill-rule="nonzero" fill-opacity="1" /></svg>
