<?xml version="1.0" encoding="utf-8"?>
<svg xmlns="http://www.w3.org/2000/svg" xmlns:xlink="http://www.w3.org/1999/xlink" width="700" height="450" viewBox="0 0 2800 1800">
<defs>
  <clipPath id="clip860">
    <rect x="0" y="0" width="2800" height="1800"/>
  </clipPath>
</defs>
<path clip-path="url(#clip860)" d="M0 1800 L2800 1800 L2800 -2.27374e-13 L0 -2.27374e-13  Z" fill="#ffffff" fill-rule="evenodd" fill-opacity="1"/>
<defs>
  <clipPath id="clip861">
    <rect x="560" y="0" width="1961" height="1800"/>
  </clipPath>
</defs>
<path clip-path="url(#clip860)" d="M243.186 1599.12 L2752.76 1599.12 L2752.76 47.2441 L243.186 47.2441  Z" fill="#ffffff" fill-rule="evenodd" fill-opacity="1"/>
<defs>
  <clipPath id="clip862">
    <rect x="243" y="47" width="2511" height="1553"/>
  </clipPath>
</defs>
<polyline clip-path="url(#clip862)" style="stroke:#000000; stroke-linecap:round; stroke-linejoin:round; stroke-width:2; stroke-opacity:0.1; fill:none" points="390.807,1599.12 390.807,47.2441 "/>
<polyline clip-path="url(#clip862)" style="stroke:#000000; stroke-linecap:round; stroke-linejoin:round; stroke-width:2; stroke-opacity:0.1; fill:none" points="1424.16,1599.12 1424.16,47.2441 "/>
<polyline clip-path="url(#clip862)" style="stroke:#000000; stroke-linecap:round; stroke-linejoin:round; stroke-width:2; stroke-opacity:0.1; fill:none" points="1424.16,1599.12 1424.16,47.2441 "/>
<polyline clip-path="url(#clip862)" style="stroke:#000000; stroke-linecap:round; stroke-linejoin:round; stroke-width:2; stroke-opacity:0.1; fill:none" points="2605.13,1599.12 2605.13,47.2441 "/>
<polyline clip-path="url(#clip862)" style="stroke:#000000; stroke-linecap:round; stroke-linejoin:round; stroke-width:2; stroke-opacity:0.1; fill:none" points="390.807,1599.12 390.807,47.2441 "/>
<polyline clip-path="url(#clip862)" style="stroke:#000000; stroke-linecap:round; stroke-linejoin:round; stroke-width:2; stroke-opacity:0.1; fill:none" points="1424.16,1599.12 1424.16,47.2441 "/>
<polyline clip-path="url(#clip862)" style="stroke:#000000; stroke-linecap:round; stroke-linejoin:round; stroke-width:2; stroke-opacity:0.1; fill:none" points="1424.16,1599.12 1424.16,47.2441 "/>
<polyline clip-path="url(#clip862)" style="stroke:#000000; stroke-linecap:round; stroke-linejoin:round; stroke-width:2; stroke-opacity:0.1; fill:none" points="2605.13,1599.12 2605.13,47.2441 "/>
<polyline clip-path="url(#clip860)" style="stroke:#000000; stroke-linecap:round; stroke-linejoin:round; stroke-width:4; stroke-opacity:1; fill:none" points="243.186,1599.12 2752.76,1599.12 "/>
<polyline clip-path="url(#clip860)" style="stroke:#000000; stroke-linecap:round; stroke-linejoin:round; stroke-width:4; stroke-opacity:1; fill:none" points="243.186,47.2441 2752.76,47.2441 "/>
<polyline clip-path="url(#clip860)" style="stroke:#000000; stroke-linecap:round; stroke-linejoin:round; stroke-width:4; stroke-opacity:1; fill:none" points="390.807,1599.12 390.807,1580.22 "/>
<polyline clip-path="url(#clip860)" style="stroke:#000000; stroke-linecap:round; stroke-linejoin:round; stroke-width:4; stroke-opacity:1; fill:none" points="1424.16,1599.12 1424.16,1580.22 "/>
<polyline clip-path="url(#clip860)" style="stroke:#000000; stroke-linecap:round; stroke-linejoin:round; stroke-width:4; stroke-opacity:1; fill:none" points="1424.16,1599.12 1424.16,1580.22 "/>
<polyline clip-path="url(#clip860)" style="stroke:#000000; stroke-linecap:round; stroke-linejoin:round; stroke-width:4; stroke-opacity:1; fill:none" points="2605.13,1599.12 2605.13,1580.22 "/>
<polyline clip-path="url(#clip860)" style="stroke:#000000; stroke-linecap:round; stroke-linejoin:round; stroke-width:4; stroke-opacity:1; fill:none" points="390.807,47.2441 390.807,66.1417 "/>
<polyline clip-path="url(#clip860)" style="stroke:#000000; stroke-linecap:round; stroke-linejoin:round; stroke-width:4; stroke-opacity:1; fill:none" points="1424.16,47.2441 1424.16,66.1417 "/>
<polyline clip-path="url(#clip860)" style="stroke:#000000; stroke-linecap:round; stroke-linejoin:round; stroke-width:4; stroke-opacity:1; fill:none" points="1424.16,47.2441 1424.16,66.1417 "/>
<polyline clip-path="url(#clip860)" style="stroke:#000000; stroke-linecap:round; stroke-linejoin:round; stroke-width:4; stroke-opacity:1; fill:none" points="2605.13,47.2441 2605.13,66.1417 "/>
<path clip-path="url(#clip860)" d="M376.38 1680.41 L387.839 1680.41 L387.839 1640.87 L375.374 1643.37 L375.374 1636.98 L387.769 1634.48 L394.783 1634.48 L394.783 1680.41 L406.241 1680.41 L406.241 1686.32 L376.38 1686.32 L376.38 1680.41 Z" fill="#000000" fill-rule="nonzero" fill-opacity="1" /><path clip-path="url(#clip860)" d="M1424.16 1661.7 Q1419.16 1661.7 1416.28 1664.37 Q1413.43 1667.05 1413.43 1671.73 Q1413.43 1676.42 1416.28 1679.09 Q1419.16 1681.77 1424.16 1681.77 Q1429.16 1681.77 1432.04 1679.09 Q1434.92 1676.39 1434.92 1671.73 Q1434.92 1667.05 1432.04 1664.37 Q1429.19 1661.7 1424.16 1661.7 M1417.15 1658.71 Q1412.63 1657.6 1410.1 1654.51 Q1407.6 1651.42 1407.6 1646.98 Q1407.6 1640.76 1412.01 1637.15 Q1416.45 1633.54 1424.16 1633.54 Q1431.9 1633.54 1436.31 1637.15 Q1440.72 1640.76 1440.72 1646.98 Q1440.72 1651.42 1438.19 1654.51 Q1435.69 1657.6 1431.21 1658.71 Q1436.28 1659.89 1439.09 1663.33 Q1441.94 1666.77 1441.94 1671.73 Q1441.94 1679.27 1437.32 1683.3 Q1432.74 1687.32 1424.16 1687.32 Q1415.58 1687.32 1410.97 1683.3 Q1406.38 1679.27 1406.38 1671.73 Q1406.38 1666.77 1409.23 1663.33 Q1412.08 1659.89 1417.15 1658.71 M1414.58 1647.64 Q1414.58 1651.66 1417.08 1653.92 Q1419.61 1656.18 1424.16 1656.18 Q1428.67 1656.18 1431.21 1653.92 Q1433.78 1651.66 1433.78 1647.64 Q1433.78 1643.61 1431.21 1641.35 Q1428.67 1639.1 1424.16 1639.1 Q1419.61 1639.1 1417.08 1641.35 Q1414.58 1643.61 1414.58 1647.64 Z" fill="#000000" fill-rule="nonzero" fill-opacity="1" /><path clip-path="url(#clip860)" d="M1424.16 1661.7 Q1419.16 1661.7 1416.28 1664.37 Q1413.43 1667.05 1413.43 1671.73 Q1413.43 1676.42 1416.28 1679.09 Q1419.16 1681.77 1424.16 1681.77 Q1429.16 1681.77 1432.04 1679.09 Q1434.92 1676.39 1434.92 1671.73 Q1434.92 1667.05 1432.04 1664.37 Q1429.19 1661.7 1424.16 1661.7 M1417.15 1658.71 Q1412.63 1657.6 1410.1 1654.51 Q1407.6 1651.42 1407.6 1646.98 Q1407.6 1640.76 1412.01 1637.15 Q1416.45 1633.54 1424.16 1633.54 Q1431.9 1633.54 1436.31 1637.15 Q1440.72 1640.76 1440.72 1646.98 Q1440.72 1651.42 1438.19 1654.51 Q1435.69 1657.6 1431.21 1658.71 Q1436.28 1659.89 1439.09 1663.33 Q1441.94 1666.77 1441.94 1671.73 Q1441.94 1679.27 1437.32 1683.3 Q1432.74 1687.32 1424.16 1687.32 Q1415.58 1687.32 1410.97 1683.3 Q1406.38 1679.27 1406.38 1671.73 Q1406.38 1666.77 1409.23 1663.33 Q1412.08 1659.89 1417.15 1658.71 M1414.58 1647.64 Q1414.58 1651.66 1417.08 1653.92 Q1419.61 1656.18 1424.16 1656.18 Q1428.67 1656.18 1431.21 1653.92 Q1433.78 1651.66 1433.78 1647.64 Q1433.78 1643.61 1431.21 1641.35 Q1428.67 1639.1 1424.16 1639.1 Q1419.61 1639.1 1417.08 1641.35 Q1414.58 1643.61 1414.58 1647.64 Z" fill="#000000" fill-rule="nonzero" fill-opacity="1" /><path clip-path="url(#clip860)" d="M2567.04 1680.41 L2578.5 1680.41 L2578.5 1640.87 L2566.04 1643.37 L2566.04 1636.98 L2578.43 1634.48 L2585.45 1634.48 L2585.45 1680.41 L2596.91 1680.41 L2596.91 1686.32 L2567.04 1686.32 L2567.04 1680.41 Z" fill="#000000" fill-rule="nonzero" fill-opacity="1" /><path clip-path="url(#clip860)" d="M2626.94 1657.6 Q2622.22 1657.6 2619.44 1660.83 Q2616.7 1664.06 2616.7 1669.69 Q2616.7 1675.28 2619.44 1678.54 Q2622.22 1681.77 2626.94 1681.77 Q2631.66 1681.77 2634.4 1678.54 Q2637.18 1675.28 2637.18 1669.69 Q2637.18 1664.06 2634.4 1660.83 Q2631.66 1657.6 2626.94 1657.6 M2640.86 1635.62 L2640.86 1642.01 Q2638.22 1640.76 2635.52 1640.1 Q2632.84 1639.44 2630.2 1639.44 Q2623.26 1639.44 2619.58 1644.13 Q2615.93 1648.82 2615.41 1658.3 Q2617.46 1655.28 2620.55 1653.68 Q2623.64 1652.05 2627.36 1652.05 Q2635.17 1652.05 2639.68 1656.8 Q2644.23 1661.53 2644.23 1669.69 Q2644.23 1677.67 2639.51 1682.5 Q2634.79 1687.32 2626.94 1687.32 Q2617.95 1687.32 2613.19 1680.45 Q2608.43 1673.54 2608.43 1660.45 Q2608.43 1648.16 2614.27 1640.87 Q2620.1 1633.54 2629.93 1633.54 Q2632.56 1633.54 2635.24 1634.06 Q2637.95 1634.58 2640.86 1635.62 Z" fill="#000000" fill-rule="nonzero" fill-opacity="1" /><path clip-path="url(#clip860)" d="M1180.36 1760.84 L1180.36 1786.27 L1173.44 1786.27 L1173.44 1761.07 Q1173.44 1755.09 1171.11 1752.11 Q1168.78 1749.14 1164.11 1749.14 Q1158.51 1749.14 1155.27 1752.72 Q1152.04 1756.29 1152.04 1762.46 L1152.04 1786.27 L1145.08 1786.27 L1145.08 1744.14 L1152.04 1744.14 L1152.04 1750.68 Q1154.52 1746.89 1157.87 1745 Q1161.26 1743.12 1165.66 1743.12 Q1172.92 1743.12 1176.64 1747.64 Q1180.36 1752.11 1180.36 1760.84 Z" fill="#000000" fill-rule="nonzero" fill-opacity="1" /><path clip-path="url(#clip860)" d="M1193.45 1769.64 L1193.45 1744.14 L1200.38 1744.14 L1200.38 1769.38 Q1200.38 1775.36 1202.71 1778.37 Q1205.04 1781.34 1209.7 1781.34 Q1215.31 1781.34 1218.54 1777.77 Q1221.82 1774.19 1221.82 1768.03 L1221.82 1744.14 L1228.74 1744.14 L1228.74 1786.27 L1221.82 1786.27 L1221.82 1779.8 Q1219.3 1783.64 1215.95 1785.52 Q1212.64 1787.36 1208.24 1787.36 Q1200.98 1787.36 1197.22 1782.85 Q1193.45 1778.33 1193.45 1769.64 M1210.87 1743.12 L1210.87 1743.12 Z" fill="#000000" fill-rule="nonzero" fill-opacity="1" /><path clip-path="url(#clip860)" d="M1275.79 1752.23 Q1278.39 1747.56 1282 1745.34 Q1285.61 1743.12 1290.5 1743.12 Q1297.09 1743.12 1300.66 1747.75 Q1304.23 1752.34 1304.23 1760.84 L1304.23 1786.27 L1297.27 1786.27 L1297.27 1761.07 Q1297.27 1755.01 1295.13 1752.08 Q1292.98 1749.14 1288.58 1749.14 Q1283.2 1749.14 1280.08 1752.72 Q1276.96 1756.29 1276.96 1762.46 L1276.96 1786.27 L1270 1786.27 L1270 1761.07 Q1270 1754.97 1267.86 1752.08 Q1265.71 1749.14 1261.24 1749.14 Q1255.93 1749.14 1252.81 1752.75 Q1249.69 1756.33 1249.69 1762.46 L1249.69 1786.27 L1242.73 1786.27 L1242.73 1744.14 L1249.69 1744.14 L1249.69 1750.68 Q1252.06 1746.81 1255.37 1744.97 Q1258.68 1743.12 1263.23 1743.12 Q1267.82 1743.12 1271.02 1745.46 Q1274.25 1747.79 1275.79 1752.23 Z" fill="#000000" fill-rule="nonzero" fill-opacity="1" /><path clip-path="url(#clip860)" d="M1348.28 1765.24 Q1348.28 1757.61 1345.12 1753.28 Q1342 1748.92 1336.51 1748.92 Q1331.01 1748.92 1327.85 1753.28 Q1324.73 1757.61 1324.73 1765.24 Q1324.73 1772.88 1327.85 1777.24 Q1331.01 1781.57 1336.51 1781.57 Q1342 1781.57 1345.12 1777.24 Q1348.28 1772.88 1348.28 1765.24 M1324.73 1750.53 Q1326.91 1746.77 1330.22 1744.97 Q1333.57 1743.12 1338.2 1743.12 Q1345.87 1743.12 1350.65 1749.22 Q1355.46 1755.31 1355.46 1765.24 Q1355.46 1775.17 1350.65 1781.27 Q1345.87 1787.36 1338.2 1787.36 Q1333.57 1787.36 1330.22 1785.55 Q1326.91 1783.71 1324.73 1779.95 L1324.73 1786.27 L1317.77 1786.27 L1317.77 1727.74 L1324.73 1727.74 L1324.73 1750.53 Z" fill="#000000" fill-rule="nonzero" fill-opacity="1" /><path clip-path="url(#clip860)" d="M1402.97 1763.47 L1402.97 1766.86 L1371.15 1766.86 Q1371.6 1774.01 1375.44 1777.77 Q1379.31 1781.49 1386.2 1781.49 Q1390.18 1781.49 1393.91 1780.51 Q1397.67 1779.54 1401.36 1777.58 L1401.36 1784.12 Q1397.63 1785.7 1393.72 1786.53 Q1389.81 1787.36 1385.78 1787.36 Q1375.7 1787.36 1369.8 1781.49 Q1363.93 1775.62 1363.93 1765.62 Q1363.93 1755.27 1369.49 1749.22 Q1375.1 1743.12 1384.58 1743.12 Q1393.08 1743.12 1398.01 1748.62 Q1402.97 1754.07 1402.97 1763.47 M1396.05 1761.44 Q1395.98 1755.76 1392.85 1752.38 Q1389.77 1748.99 1384.65 1748.99 Q1378.86 1748.99 1375.36 1752.26 Q1371.9 1755.54 1371.38 1761.48 L1396.05 1761.44 Z" fill="#000000" fill-rule="nonzero" fill-opacity="1" /><path clip-path="url(#clip860)" d="M1438.75 1750.61 Q1437.58 1749.93 1436.19 1749.63 Q1434.83 1749.29 1433.18 1749.29 Q1427.31 1749.29 1424.15 1753.13 Q1421.03 1756.93 1421.03 1764.08 L1421.03 1786.27 L1414.07 1786.27 L1414.07 1744.14 L1421.03 1744.14 L1421.03 1750.68 Q1423.21 1746.85 1426.71 1745 Q1430.21 1743.12 1435.21 1743.12 Q1435.92 1743.12 1436.79 1743.24 Q1437.65 1743.31 1438.71 1743.5 L1438.75 1750.61 Z" fill="#000000" fill-rule="nonzero" fill-opacity="1" /><path clip-path="url(#clip860)" d="M1486.82 1748.99 Q1481.25 1748.99 1478.02 1753.36 Q1474.78 1757.68 1474.78 1765.24 Q1474.78 1772.8 1477.98 1777.17 Q1481.21 1781.49 1486.82 1781.49 Q1492.35 1781.49 1495.58 1777.13 Q1498.82 1772.77 1498.82 1765.24 Q1498.82 1757.76 1495.58 1753.39 Q1492.35 1748.99 1486.82 1748.99 M1486.82 1743.12 Q1495.85 1743.12 1501 1748.99 Q1506.15 1754.86 1506.15 1765.24 Q1506.15 1775.59 1501 1781.49 Q1495.85 1787.36 1486.82 1787.36 Q1477.75 1787.36 1472.6 1781.49 Q1467.48 1775.59 1467.48 1765.24 Q1467.48 1754.86 1472.6 1748.99 Q1477.75 1743.12 1486.82 1743.12 Z" fill="#000000" fill-rule="nonzero" fill-opacity="1" /><path clip-path="url(#clip860)" d="M1538.95 1727.74 L1538.95 1733.49 L1532.33 1733.49 Q1528.61 1733.49 1527.14 1735 Q1525.71 1736.5 1525.71 1740.42 L1525.71 1744.14 L1537.11 1744.14 L1537.11 1749.52 L1525.71 1749.52 L1525.71 1786.27 L1518.75 1786.27 L1518.75 1749.52 L1512.13 1749.52 L1512.13 1744.14 L1518.75 1744.14 L1518.75 1741.21 Q1518.75 1734.17 1522.03 1730.97 Q1525.3 1727.74 1532.41 1727.74 L1538.95 1727.74 Z" fill="#000000" fill-rule="nonzero" fill-opacity="1" /><path clip-path="url(#clip860)" d="M1576.08 1732.18 L1576.08 1744.14 L1590.34 1744.14 L1590.34 1749.52 L1576.08 1749.52 L1576.08 1772.39 Q1576.08 1777.54 1577.47 1779.01 Q1578.9 1780.48 1583.23 1780.48 L1590.34 1780.48 L1590.34 1786.27 L1583.23 1786.27 Q1575.21 1786.27 1572.17 1783.3 Q1569.12 1780.29 1569.12 1772.39 L1569.12 1749.52 L1564.04 1749.52 L1564.04 1744.14 L1569.12 1744.14 L1569.12 1732.18 L1576.08 1732.18 Z" fill="#000000" fill-rule="nonzero" fill-opacity="1" /><path clip-path="url(#clip860)" d="M1634.46 1760.84 L1634.46 1786.27 L1627.54 1786.27 L1627.54 1761.07 Q1627.54 1755.09 1625.21 1752.11 Q1622.87 1749.14 1618.21 1749.14 Q1612.6 1749.14 1609.37 1752.72 Q1606.13 1756.29 1606.13 1762.46 L1606.13 1786.27 L1599.18 1786.27 L1599.18 1727.74 L1606.13 1727.74 L1606.13 1750.68 Q1608.62 1746.89 1611.96 1745 Q1615.35 1743.12 1619.75 1743.12 Q1627.01 1743.12 1630.73 1747.64 Q1634.46 1752.11 1634.46 1760.84 Z" fill="#000000" fill-rule="nonzero" fill-opacity="1" /><path clip-path="url(#clip860)" d="M1672.68 1750.61 Q1671.51 1749.93 1670.12 1749.63 Q1668.76 1749.29 1667.11 1749.29 Q1661.24 1749.29 1658.08 1753.13 Q1654.96 1756.93 1654.96 1764.08 L1654.96 1786.27 L1648 1786.27 L1648 1744.14 L1654.96 1744.14 L1654.96 1750.68 Q1657.14 1746.85 1660.64 1745 Q1664.14 1743.12 1669.14 1743.12 Q1669.85 1743.12 1670.72 1743.24 Q1671.59 1743.31 1672.64 1743.5 L1672.68 1750.61 Z" fill="#000000" fill-rule="nonzero" fill-opacity="1" /><path clip-path="url(#clip860)" d="M1714.28 1763.47 L1714.28 1766.86 L1682.46 1766.86 Q1682.91 1774.01 1686.74 1777.77 Q1690.62 1781.49 1697.5 1781.49 Q1701.49 1781.49 1705.21 1780.51 Q1708.98 1779.54 1712.66 1777.58 L1712.66 1784.12 Q1708.94 1785.7 1705.03 1786.53 Q1701.11 1787.36 1697.09 1787.36 Q1687.01 1787.36 1681.1 1781.49 Q1675.23 1775.62 1675.23 1765.62 Q1675.23 1755.27 1680.8 1749.22 Q1686.41 1743.12 1695.88 1743.12 Q1704.39 1743.12 1709.31 1748.62 Q1714.28 1754.07 1714.28 1763.47 M1707.36 1761.44 Q1707.28 1755.76 1704.16 1752.38 Q1701.08 1748.99 1695.96 1748.99 Q1690.17 1748.99 1686.67 1752.26 Q1683.21 1755.54 1682.68 1761.48 L1707.36 1761.44 Z" fill="#000000" fill-rule="nonzero" fill-opacity="1" /><path clip-path="url(#clip860)" d="M1744.79 1765.09 Q1736.4 1765.09 1733.16 1767.01 Q1729.93 1768.93 1729.93 1773.55 Q1729.93 1777.24 1732.33 1779.42 Q1734.78 1781.57 1738.95 1781.57 Q1744.71 1781.57 1748.17 1777.5 Q1751.67 1773.4 1751.67 1766.63 L1751.67 1765.09 L1744.79 1765.09 M1758.59 1762.23 L1758.59 1786.27 L1751.67 1786.27 L1751.67 1779.87 Q1749.3 1783.71 1745.76 1785.55 Q1742.23 1787.36 1737.11 1787.36 Q1730.64 1787.36 1726.8 1783.75 Q1723.01 1780.1 1723.01 1774.01 Q1723.01 1766.9 1727.75 1763.29 Q1732.52 1759.67 1741.96 1759.67 L1751.67 1759.67 L1751.67 1759 Q1751.67 1754.22 1748.51 1751.63 Q1745.39 1748.99 1739.71 1748.99 Q1736.1 1748.99 1732.67 1749.86 Q1729.25 1750.72 1726.09 1752.45 L1726.09 1746.06 Q1729.89 1744.59 1733.46 1743.88 Q1737.04 1743.12 1740.42 1743.12 Q1749.56 1743.12 1754.08 1747.86 Q1758.59 1752.6 1758.59 1762.23 Z" fill="#000000" fill-rule="nonzero" fill-opacity="1" /><path clip-path="url(#clip860)" d="M1800.57 1750.53 L1800.57 1727.74 L1807.49 1727.74 L1807.49 1786.27 L1800.57 1786.27 L1800.57 1779.95 Q1798.39 1783.71 1795.04 1785.55 Q1791.73 1787.36 1787.07 1787.36 Q1779.43 1787.36 1774.61 1781.27 Q1769.84 1775.17 1769.84 1765.24 Q1769.84 1755.31 1774.61 1749.22 Q1779.43 1743.12 1787.07 1743.12 Q1791.73 1743.12 1795.04 1744.97 Q1798.39 1746.77 1800.57 1750.53 M1776.98 1765.24 Q1776.98 1772.88 1780.11 1777.24 Q1783.27 1781.57 1788.76 1781.57 Q1794.25 1781.57 1797.41 1777.24 Q1800.57 1772.88 1800.57 1765.24 Q1800.57 1757.61 1797.41 1753.28 Q1794.25 1748.92 1788.76 1748.92 Q1783.27 1748.92 1780.11 1753.28 Q1776.98 1757.61 1776.98 1765.24 Z" fill="#000000" fill-rule="nonzero" fill-opacity="1" /><path clip-path="url(#clip860)" d="M1848.6 1745.38 L1848.6 1751.93 Q1845.67 1750.42 1842.51 1749.67 Q1839.35 1748.92 1835.97 1748.92 Q1830.81 1748.92 1828.22 1750.5 Q1825.66 1752.08 1825.66 1755.24 Q1825.66 1757.64 1827.5 1759.04 Q1829.34 1760.39 1834.91 1761.63 L1837.28 1762.16 Q1844.65 1763.74 1847.74 1766.63 Q1850.86 1769.49 1850.86 1774.65 Q1850.86 1780.51 1846.2 1783.94 Q1841.57 1787.36 1833.44 1787.36 Q1830.06 1787.36 1826.37 1786.68 Q1822.72 1786.04 1818.66 1784.73 L1818.66 1777.58 Q1822.5 1779.57 1826.22 1780.59 Q1829.95 1781.57 1833.6 1781.57 Q1838.49 1781.57 1841.12 1779.91 Q1843.75 1778.22 1843.75 1775.17 Q1843.75 1772.35 1841.83 1770.85 Q1839.95 1769.34 1833.52 1767.95 L1831.11 1767.39 Q1824.68 1766.03 1821.82 1763.25 Q1818.96 1760.43 1818.96 1755.54 Q1818.96 1749.59 1823.18 1746.36 Q1827.39 1743.12 1835.14 1743.12 Q1838.97 1743.12 1842.36 1743.69 Q1845.75 1744.25 1848.6 1745.38 Z" fill="#000000" fill-rule="nonzero" fill-opacity="1" /><polyline clip-path="url(#clip862)" style="stroke:#000000; stroke-linecap:round; stroke-linejoin:round; stroke-width:2; stroke-opacity:0.1; fill:none" points="243.186,1527.81 2752.76,1527.81 "/>
<polyline clip-path="url(#clip862)" style="stroke:#000000; stroke-linecap:round; stroke-linejoin:round; stroke-width:2; stroke-opacity:0.1; fill:none" points="243.186,1239.56 2752.76,1239.56 "/>
<polyline clip-path="url(#clip862)" style="stroke:#000000; stroke-linecap:round; stroke-linejoin:round; stroke-width:2; stroke-opacity:0.1; fill:none" points="243.186,951.308 2752.76,951.308 "/>
<polyline clip-path="url(#clip862)" style="stroke:#000000; stroke-linecap:round; stroke-linejoin:round; stroke-width:2; stroke-opacity:0.1; fill:none" points="243.186,663.057 2752.76,663.057 "/>
<polyline clip-path="url(#clip862)" style="stroke:#000000; stroke-linecap:round; stroke-linejoin:round; stroke-width:2; stroke-opacity:0.1; fill:none" points="243.186,374.805 2752.76,374.805 "/>
<polyline clip-path="url(#clip862)" style="stroke:#000000; stroke-linecap:round; stroke-linejoin:round; stroke-width:2; stroke-opacity:0.1; fill:none" points="243.186,86.553 2752.76,86.553 "/>
<polyline clip-path="url(#clip862)" style="stroke:#000000; stroke-linecap:round; stroke-linejoin:round; stroke-width:2; stroke-opacity:0.1; fill:none" points="243.186,1527.81 2752.76,1527.81 "/>
<polyline clip-path="url(#clip862)" style="stroke:#000000; stroke-linecap:round; stroke-linejoin:round; stroke-width:2; stroke-opacity:0.1; fill:none" points="243.186,1239.56 2752.76,1239.56 "/>
<polyline clip-path="url(#clip862)" style="stroke:#000000; stroke-linecap:round; stroke-linejoin:round; stroke-width:2; stroke-opacity:0.1; fill:none" points="243.186,951.308 2752.76,951.308 "/>
<polyline clip-path="url(#clip862)" style="stroke:#000000; stroke-linecap:round; stroke-linejoin:round; stroke-width:2; stroke-opacity:0.1; fill:none" points="243.186,663.057 2752.76,663.057 "/>
<polyline clip-path="url(#clip862)" style="stroke:#000000; stroke-linecap:round; stroke-linejoin:round; stroke-width:2; stroke-opacity:0.1; fill:none" points="243.186,374.805 2752.76,374.805 "/>
<polyline clip-path="url(#clip862)" style="stroke:#000000; stroke-linecap:round; stroke-linejoin:round; stroke-width:2; stroke-opacity:0.1; fill:none" points="243.186,86.553 2752.76,86.553 "/>
<polyline clip-path="url(#clip860)" style="stroke:#000000; stroke-linecap:round; stroke-linejoin:round; stroke-width:4; stroke-opacity:1; fill:none" points="243.186,1599.12 243.186,47.2441 "/>
<polyline clip-path="url(#clip860)" style="stroke:#000000; stroke-linecap:round; stroke-linejoin:round; stroke-width:4; stroke-opacity:1; fill:none" points="2752.76,1599.12 2752.76,47.2441 "/>
<polyline clip-path="url(#clip860)" style="stroke:#000000; stroke-linecap:round; stroke-linejoin:round; stroke-width:4; stroke-opacity:1; fill:none" points="243.186,1527.81 262.083,1527.81 "/>
<polyline clip-path="url(#clip860)" style="stroke:#000000; stroke-linecap:round; stroke-linejoin:round; stroke-width:4; stroke-opacity:1; fill:none" points="243.186,1239.56 262.083,1239.56 "/>
<polyline clip-path="url(#clip860)" style="stroke:#000000; stroke-linecap:round; stroke-linejoin:round; stroke-width:4; stroke-opacity:1; fill:none" points="243.186,951.308 262.083,951.308 "/>
<polyline clip-path="url(#clip860)" style="stroke:#000000; stroke-linecap:round; stroke-linejoin:round; stroke-width:4; stroke-opacity:1; fill:none" points="243.186,663.057 262.083,663.057 "/>
<polyline clip-path="url(#clip860)" style="stroke:#000000; stroke-linecap:round; stroke-linejoin:round; stroke-width:4; stroke-opacity:1; fill:none" points="243.186,374.805 262.083,374.805 "/>
<polyline clip-path="url(#clip860)" style="stroke:#000000; stroke-linecap:round; stroke-linejoin:round; stroke-width:4; stroke-opacity:1; fill:none" points="243.186,86.553 262.083,86.553 "/>
<polyline clip-path="url(#clip860)" style="stroke:#000000; stroke-linecap:round; stroke-linejoin:round; stroke-width:4; stroke-opacity:1; fill:none" points="2752.76,1527.81 2733.86,1527.81 "/>
<polyline clip-path="url(#clip860)" style="stroke:#000000; stroke-linecap:round; stroke-linejoin:round; stroke-width:4; stroke-opacity:1; fill:none" points="2752.76,1239.56 2733.86,1239.56 "/>
<polyline clip-path="url(#clip860)" style="stroke:#000000; stroke-linecap:round; stroke-linejoin:round; stroke-width:4; stroke-opacity:1; fill:none" points="2752.76,951.308 2733.86,951.308 "/>
<polyline clip-path="url(#clip860)" style="stroke:#000000; stroke-linecap:round; stroke-linejoin:round; stroke-width:4; stroke-opacity:1; fill:none" points="2752.76,663.057 2733.86,663.057 "/>
<polyline clip-path="url(#clip860)" style="stroke:#000000; stroke-linecap:round; stroke-linejoin:round; stroke-width:4; stroke-opacity:1; fill:none" points="2752.76,374.805 2733.86,374.805 "/>
<polyline clip-path="url(#clip860)" style="stroke:#000000; stroke-linecap:round; stroke-linejoin:round; stroke-width:4; stroke-opacity:1; fill:none" points="2752.76,86.553 2733.86,86.553 "/>
<path clip-path="url(#clip860)" d="M124.242 1547.83 L135.7 1547.83 L135.7 1508.28 L123.235 1510.78 L123.235 1504.39 L135.63 1501.89 L142.644 1501.89 L142.644 1547.83 L154.103 1547.83 L154.103 1553.73 L124.242 1553.73 L124.242 1547.83 Z" fill="#000000" fill-rule="nonzero" fill-opacity="1" /><path clip-path="url(#clip860)" d="M183.269 1506.51 Q177.852 1506.51 175.109 1511.86 Q172.401 1517.17 172.401 1527.86 Q172.401 1538.52 175.109 1543.87 Q177.852 1549.18 183.269 1549.18 Q188.72 1549.18 191.429 1543.87 Q194.172 1538.52 194.172 1527.86 Q194.172 1517.17 191.429 1511.86 Q188.72 1506.51 183.269 1506.51 M183.269 1500.95 Q191.984 1500.95 196.568 1507.86 Q201.186 1514.74 201.186 1527.86 Q201.186 1540.95 196.568 1547.86 Q191.984 1554.74 183.269 1554.74 Q174.554 1554.74 169.936 1547.86 Q165.353 1540.95 165.353 1527.86 Q165.353 1514.74 169.936 1507.86 Q174.554 1500.95 183.269 1500.95 Z" fill="#000000" fill-rule="nonzero" fill-opacity="1" /><path clip-path="url(#clip860)" d="M129.068 1259.58 L153.547 1259.58 L153.547 1265.48 L120.631 1265.48 L120.631 1259.58 Q124.624 1255.45 131.499 1248.5 Q138.408 1241.52 140.179 1239.51 Q143.547 1235.72 144.867 1233.12 Q146.221 1230.48 146.221 1227.95 Q146.221 1223.81 143.304 1221.21 Q140.422 1218.61 135.769 1218.61 Q132.471 1218.61 128.79 1219.75 Q125.144 1220.9 120.978 1223.22 L120.978 1216.14 Q125.214 1214.44 128.894 1213.57 Q132.575 1212.7 135.63 1212.7 Q143.686 1212.7 148.478 1216.73 Q153.269 1220.76 153.269 1227.49 Q153.269 1230.69 152.054 1233.57 Q150.873 1236.42 147.714 1240.31 Q146.846 1241.31 142.193 1246.14 Q137.54 1250.93 129.068 1259.58 Z" fill="#000000" fill-rule="nonzero" fill-opacity="1" /><path clip-path="url(#clip860)" d="M183.269 1218.26 Q177.852 1218.26 175.109 1223.61 Q172.401 1228.92 172.401 1239.61 Q172.401 1250.27 175.109 1255.62 Q177.852 1260.93 183.269 1260.93 Q188.72 1260.93 191.429 1255.62 Q194.172 1250.27 194.172 1239.61 Q194.172 1228.92 191.429 1223.61 Q188.72 1218.26 183.269 1218.26 M183.269 1212.7 Q191.984 1212.7 196.568 1219.61 Q201.186 1226.49 201.186 1239.61 Q201.186 1252.7 196.568 1259.61 Q191.984 1266.49 183.269 1266.49 Q174.554 1266.49 169.936 1259.61 Q165.353 1252.7 165.353 1239.61 Q165.353 1226.49 169.936 1219.61 Q174.554 1212.7 183.269 1212.7 Z" fill="#000000" fill-rule="nonzero" fill-opacity="1" /><path clip-path="url(#clip860)" d="M144.276 949.277 Q149.311 950.354 152.123 953.756 Q154.971 957.159 154.971 962.159 Q154.971 969.833 149.693 974.034 Q144.415 978.235 134.693 978.235 Q131.429 978.235 127.957 977.576 Q124.519 976.951 120.839 975.666 L120.839 968.895 Q123.756 970.597 127.228 971.465 Q130.7 972.333 134.485 972.333 Q141.082 972.333 144.519 969.729 Q147.992 967.124 147.992 962.159 Q147.992 957.576 144.762 955.006 Q141.568 952.402 135.839 952.402 L129.797 952.402 L129.797 946.638 L136.117 946.638 Q141.29 946.638 144.033 944.59 Q146.776 942.506 146.776 938.618 Q146.776 934.625 143.929 932.506 Q141.117 930.354 135.839 930.354 Q132.957 930.354 129.658 930.979 Q126.36 931.604 122.401 932.923 L122.401 926.673 Q126.394 925.562 129.867 925.007 Q133.374 924.451 136.464 924.451 Q144.45 924.451 149.103 928.097 Q153.755 931.708 153.755 937.888 Q153.755 942.194 151.29 945.18 Q148.825 948.131 144.276 949.277 Z" fill="#000000" fill-rule="nonzero" fill-opacity="1" /><path clip-path="url(#clip860)" d="M183.269 930.007 Q177.852 930.007 175.109 935.354 Q172.401 940.666 172.401 951.361 Q172.401 962.02 175.109 967.367 Q177.852 972.68 183.269 972.68 Q188.72 972.68 191.429 967.367 Q194.172 962.02 194.172 951.361 Q194.172 940.666 191.429 935.354 Q188.72 930.007 183.269 930.007 M183.269 924.451 Q191.984 924.451 196.568 931.361 Q201.186 938.236 201.186 951.361 Q201.186 964.451 196.568 971.36 Q191.984 978.235 183.269 978.235 Q174.554 978.235 169.936 971.36 Q165.353 964.451 165.353 951.361 Q165.353 938.236 169.936 931.361 Q174.554 924.451 183.269 924.451 Z" fill="#000000" fill-rule="nonzero" fill-opacity="1" /><path clip-path="url(#clip860)" d="M142.297 643.248 L124.589 670.921 L142.297 670.921 L142.297 643.248 M140.457 637.137 L149.276 637.137 L149.276 670.921 L156.672 670.921 L156.672 676.754 L149.276 676.754 L149.276 688.977 L142.297 688.977 L142.297 676.754 L118.894 676.754 L118.894 669.984 L140.457 637.137 Z" fill="#000000" fill-rule="nonzero" fill-opacity="1" /><path clip-path="url(#clip860)" d="M183.269 641.755 Q177.852 641.755 175.109 647.102 Q172.401 652.414 172.401 663.109 Q172.401 673.768 175.109 679.116 Q177.852 684.428 183.269 684.428 Q188.72 684.428 191.429 679.116 Q194.172 673.768 194.172 663.109 Q194.172 652.414 191.429 647.102 Q188.72 641.755 183.269 641.755 M183.269 636.199 Q191.984 636.199 196.568 643.109 Q201.186 649.984 201.186 663.109 Q201.186 676.199 196.568 683.109 Q191.984 689.984 183.269 689.984 Q174.554 689.984 169.936 683.109 Q165.353 676.199 165.353 663.109 Q165.353 649.984 169.936 643.109 Q174.554 636.199 183.269 636.199 Z" fill="#000000" fill-rule="nonzero" fill-opacity="1" /><path clip-path="url(#clip860)" d="M123.096 348.885 L150.63 348.885 L150.63 354.788 L129.519 354.788 L129.519 367.496 Q131.047 366.975 132.575 366.732 Q134.103 366.454 135.63 366.454 Q144.311 366.454 149.38 371.211 Q154.45 375.968 154.45 384.093 Q154.45 392.461 149.242 397.114 Q144.033 401.732 134.554 401.732 Q131.29 401.732 127.887 401.176 Q124.519 400.621 120.908 399.51 L120.908 392.461 Q124.033 394.162 127.367 394.996 Q130.7 395.829 134.415 395.829 Q140.422 395.829 143.929 392.669 Q147.436 389.51 147.436 384.093 Q147.436 378.676 143.929 375.517 Q140.422 372.357 134.415 372.357 Q131.603 372.357 128.79 372.982 Q126.012 373.607 123.096 374.926 L123.096 348.885 Z" fill="#000000" fill-rule="nonzero" fill-opacity="1" /><path clip-path="url(#clip860)" d="M183.269 353.503 Q177.852 353.503 175.109 358.85 Q172.401 364.163 172.401 374.857 Q172.401 385.517 175.109 390.864 Q177.852 396.176 183.269 396.176 Q188.72 396.176 191.429 390.864 Q194.172 385.517 194.172 374.857 Q194.172 364.163 191.429 358.85 Q188.72 353.503 183.269 353.503 M183.269 347.947 Q191.984 347.947 196.568 354.857 Q201.186 361.732 201.186 374.857 Q201.186 387.947 196.568 394.857 Q191.984 401.732 183.269 401.732 Q174.554 401.732 169.936 394.857 Q165.353 387.947 165.353 374.857 Q165.353 361.732 169.936 354.857 Q174.554 347.947 183.269 347.947 Z" fill="#000000" fill-rule="nonzero" fill-opacity="1" /><path clip-path="url(#clip860)" d="M138.894 83.7579 Q134.172 83.7579 131.394 86.987 Q128.651 90.2162 128.651 95.8411 Q128.651 101.431 131.394 104.695 Q134.172 107.924 138.894 107.924 Q143.617 107.924 146.36 104.695 Q149.137 101.431 149.137 95.8411 Q149.137 90.2162 146.36 86.987 Q143.617 83.7579 138.894 83.7579 M152.818 61.7788 L152.818 68.1677 Q150.179 66.9177 147.471 66.258 Q144.797 65.5982 142.158 65.5982 Q135.214 65.5982 131.533 70.2857 Q127.887 74.9732 127.367 84.4523 Q129.415 81.4315 132.505 79.8343 Q135.596 78.2023 139.311 78.2023 Q147.123 78.2023 151.637 82.9593 Q156.186 87.6815 156.186 95.8411 Q156.186 103.827 151.464 108.654 Q146.742 113.48 138.894 113.48 Q129.901 113.48 125.144 106.605 Q120.387 99.6953 120.387 86.6051 Q120.387 74.3135 126.221 67.0219 Q132.054 59.6955 141.88 59.6955 Q144.519 59.6955 147.193 60.2163 Q149.901 60.7372 152.818 61.7788 Z" fill="#000000" fill-rule="nonzero" fill-opacity="1" /><path clip-path="url(#clip860)" d="M183.269 65.251 Q177.852 65.251 175.109 70.5982 Q172.401 75.9107 172.401 86.6051 Q172.401 97.2647 175.109 102.612 Q177.852 107.924 183.269 107.924 Q188.72 107.924 191.429 102.612 Q194.172 97.2647 194.172 86.6051 Q194.172 75.9107 191.429 70.5982 Q188.72 65.251 183.269 65.251 M183.269 59.6955 Q191.984 59.6955 196.568 66.6052 Q201.186 73.4801 201.186 86.6051 Q201.186 99.6953 196.568 106.605 Q191.984 113.48 183.269 113.48 Q174.554 113.48 169.936 106.605 Q165.353 99.6953 165.353 86.6051 Q165.353 73.4801 169.936 66.6052 Q174.554 59.6955 183.269 59.6955 Z" fill="#000000" fill-rule="nonzero" fill-opacity="1" /><path clip-path="url(#clip860)" d="M26.0044 1291.19 Q21.3401 1288.6 19.1207 1284.99 Q16.9014 1281.38 16.9014 1276.49 Q16.9014 1269.9 21.5281 1266.33 Q26.1172 1262.76 34.6183 1262.76 L60.0464 1262.76 L60.0464 1269.71 L34.844 1269.71 Q28.7879 1269.71 25.8539 1271.86 Q22.9199 1274 22.9199 1278.4 Q22.9199 1283.78 26.4934 1286.9 Q30.0669 1290.03 36.2358 1290.03 L60.0464 1290.03 L60.0464 1296.99 L34.844 1296.99 Q28.7503 1296.99 25.8539 1299.13 Q22.9199 1301.27 22.9199 1305.75 Q22.9199 1311.05 26.531 1314.18 Q30.1045 1317.3 36.2358 1317.3 L60.0464 1317.3 L60.0464 1324.26 L17.917 1324.26 L17.917 1317.3 L24.4621 1317.3 Q20.5877 1314.93 18.7446 1311.62 Q16.9014 1308.31 16.9014 1303.76 Q16.9014 1299.17 19.2336 1295.97 Q21.5657 1292.74 26.0044 1291.19 Z" fill="#000000" fill-rule="nonzero" fill-opacity="1" /><path clip-path="url(#clip860)" d="M37.2514 1212.92 L40.6368 1212.92 L40.6368 1244.74 Q47.7838 1244.29 51.5453 1240.45 Q55.2693 1236.58 55.2693 1229.69 Q55.2693 1225.7 54.2913 1221.98 Q53.3133 1218.22 51.3573 1214.53 L57.9024 1214.53 Q59.4822 1218.26 60.3098 1222.17 Q61.1373 1226.08 61.1373 1230.11 Q61.1373 1240.19 55.2693 1246.09 Q49.4012 1251.96 39.3955 1251.96 Q29.0512 1251.96 22.9951 1246.39 Q16.9014 1240.79 16.9014 1231.31 Q16.9014 1222.81 22.3933 1217.88 Q27.8475 1212.92 37.2514 1212.92 M35.2202 1219.84 Q29.5402 1219.91 26.1548 1223.03 Q22.7694 1226.12 22.7694 1231.23 Q22.7694 1237.03 26.042 1240.52 Q29.3145 1243.99 35.2578 1244.51 L35.2202 1219.84 Z" fill="#000000" fill-rule="nonzero" fill-opacity="1" /><path clip-path="url(#clip860)" d="M26.0044 1168.75 Q21.3401 1166.16 19.1207 1162.55 Q16.9014 1158.94 16.9014 1154.05 Q16.9014 1147.46 21.5281 1143.89 Q26.1172 1140.32 34.6183 1140.32 L60.0464 1140.32 L60.0464 1147.28 L34.844 1147.28 Q28.7879 1147.28 25.8539 1149.42 Q22.9199 1151.56 22.9199 1155.97 Q22.9199 1161.34 26.4934 1164.47 Q30.0669 1167.59 36.2358 1167.59 L60.0464 1167.59 L60.0464 1174.55 L34.844 1174.55 Q28.7503 1174.55 25.8539 1176.69 Q22.9199 1178.84 22.9199 1183.31 Q22.9199 1188.62 26.531 1191.74 Q30.1045 1194.86 36.2358 1194.86 L60.0464 1194.86 L60.0464 1201.82 L17.917 1201.82 L17.917 1194.86 L24.4621 1194.86 Q20.5877 1192.49 18.7446 1189.18 Q16.9014 1185.87 16.9014 1181.32 Q16.9014 1176.73 19.2336 1173.53 Q21.5657 1170.3 26.0044 1168.75 Z" fill="#000000" fill-rule="nonzero" fill-opacity="1" /><path clip-path="url(#clip860)" d="M22.7694 1110.19 Q22.7694 1115.75 27.1328 1118.99 Q31.4586 1122.22 39.0194 1122.22 Q46.5801 1122.22 50.9435 1119.03 Q55.2693 1115.79 55.2693 1110.19 Q55.2693 1104.66 50.9059 1101.42 Q46.5425 1098.19 39.0194 1098.19 Q31.5339 1098.19 27.1705 1101.42 Q22.7694 1104.66 22.7694 1110.19 M16.9014 1110.19 Q16.9014 1101.16 22.7694 1096.01 Q28.6375 1090.85 39.0194 1090.85 Q49.3636 1090.85 55.2693 1096.01 Q61.1373 1101.16 61.1373 1110.19 Q61.1373 1119.25 55.2693 1124.41 Q49.3636 1129.52 39.0194 1129.52 Q28.6375 1129.52 22.7694 1124.41 Q16.9014 1119.25 16.9014 1110.19 Z" fill="#000000" fill-rule="nonzero" fill-opacity="1" /><path clip-path="url(#clip860)" d="M24.3869 1054.97 Q23.7098 1056.13 23.4089 1057.53 Q23.0704 1058.88 23.0704 1060.53 Q23.0704 1066.4 26.9072 1069.56 Q30.7063 1072.68 37.8533 1072.68 L60.0464 1072.68 L60.0464 1079.64 L17.917 1079.64 L17.917 1072.68 L24.4621 1072.68 Q20.6254 1070.5 18.7822 1067 Q16.9014 1063.51 16.9014 1058.5 Q16.9014 1057.79 17.0143 1056.92 Q17.0895 1056.06 17.2776 1055.01 L24.3869 1054.97 Z" fill="#000000" fill-rule="nonzero" fill-opacity="1" /><path clip-path="url(#clip860)" d="M63.9585 1030.18 Q71.4816 1033.11 73.7761 1035.9 Q76.0707 1038.68 76.0707 1043.34 L76.0707 1048.87 L70.2779 1048.87 L70.2779 1044.81 Q70.2779 1041.95 68.9237 1040.37 Q67.5696 1038.79 62.5291 1036.87 L59.3694 1035.63 L17.917 1052.67 L17.917 1045.34 L50.8683 1032.17 L17.917 1019.01 L17.917 1011.67 L63.9585 1030.18 Z" fill="#000000" fill-rule="nonzero" fill-opacity="1" /><path clip-path="url(#clip860)" d="M39.0194 947.387 Q31.3834 947.387 27.0576 950.547 Q22.6942 953.669 22.6942 959.161 Q22.6942 964.653 27.0576 967.812 Q31.3834 970.934 39.0194 970.934 Q46.6553 970.934 51.0187 967.812 Q55.3445 964.653 55.3445 959.161 Q55.3445 953.669 51.0187 950.547 Q46.6553 947.387 39.0194 947.387 M24.3117 970.934 Q20.5501 968.753 18.7446 965.443 Q16.9014 962.095 16.9014 957.468 Q16.9014 949.794 22.9951 945.017 Q29.0889 940.202 39.0194 940.202 Q48.9499 940.202 55.0436 945.017 Q61.1373 949.794 61.1373 957.468 Q61.1373 962.095 59.3317 965.443 Q57.4886 968.753 53.727 970.934 L60.0464 970.934 L60.0464 977.893 L1.51666 977.893 L1.51666 970.934 L24.3117 970.934 Z" fill="#000000" fill-rule="nonzero" fill-opacity="1" /><path clip-path="url(#clip860)" d="M38.8689 909.583 Q38.8689 917.972 40.7873 921.207 Q42.7057 924.442 47.3324 924.442 Q51.0187 924.442 53.2004 922.034 Q55.3445 919.589 55.3445 915.414 Q55.3445 909.659 51.282 906.198 Q47.1819 902.7 40.4111 902.7 L38.8689 902.7 L38.8689 909.583 M36.0101 895.779 L60.0464 895.779 L60.0464 902.7 L53.6518 902.7 Q57.4886 905.07 59.3317 908.605 Q61.1373 912.141 61.1373 917.257 Q61.1373 923.727 57.5262 927.564 Q53.8775 931.363 47.7838 931.363 Q40.6744 931.363 37.0633 926.623 Q33.4523 921.846 33.4523 912.405 L33.4523 902.7 L32.7752 902.7 Q27.998 902.7 25.4025 905.859 Q22.7694 908.982 22.7694 914.662 Q22.7694 918.273 23.6346 921.696 Q24.4998 925.119 26.2301 928.278 L19.8354 928.278 Q18.3684 924.479 17.6537 920.906 Q16.9014 917.332 16.9014 913.947 Q16.9014 904.806 21.641 900.292 Q26.3805 895.779 36.0101 895.779 Z" fill="#000000" fill-rule="nonzero" fill-opacity="1" /><path clip-path="url(#clip860)" d="M34.6183 846.502 L60.0464 846.502 L60.0464 853.423 L34.844 853.423 Q28.8632 853.423 25.8915 855.756 Q22.9199 858.088 22.9199 862.752 Q22.9199 868.357 26.4934 871.592 Q30.0669 874.827 36.2358 874.827 L60.0464 874.827 L60.0464 881.786 L17.917 881.786 L17.917 874.827 L24.4621 874.827 Q20.663 872.344 18.7822 868.996 Q16.9014 865.611 16.9014 861.21 Q16.9014 853.95 21.4153 850.226 Q25.8915 846.502 34.6183 846.502 Z" fill="#000000" fill-rule="nonzero" fill-opacity="1" /><path clip-path="url(#clip860)" d="M24.3117 804.975 L1.51666 804.975 L1.51666 798.053 L60.0464 798.053 L60.0464 804.975 L53.727 804.975 Q57.4886 807.156 59.3317 810.504 Q61.1373 813.814 61.1373 818.479 Q61.1373 826.115 55.0436 830.929 Q48.9499 835.707 39.0194 835.707 Q29.0889 835.707 22.9951 830.929 Q16.9014 826.115 16.9014 818.479 Q16.9014 813.814 18.7446 810.504 Q20.5501 807.156 24.3117 804.975 M39.0194 828.56 Q46.6553 828.56 51.0187 825.437 Q55.3445 822.278 55.3445 816.786 Q55.3445 811.294 51.0187 808.134 Q46.6553 804.975 39.0194 804.975 Q31.3834 804.975 27.0576 808.134 Q22.6942 811.294 22.6942 816.786 Q22.6942 822.278 27.0576 825.437 Q31.3834 828.56 39.0194 828.56 Z" fill="#000000" fill-rule="nonzero" fill-opacity="1" /><path clip-path="url(#clip860)" d="M17.917 787.822 L17.917 780.901 L50.793 772.249 L17.917 763.635 L17.917 755.473 L50.793 746.821 L17.917 738.207 L17.917 731.286 L60.0464 742.307 L60.0464 750.47 L25.5154 759.535 L60.0464 768.638 L60.0464 776.801 L17.917 787.822 Z" fill="#000000" fill-rule="nonzero" fill-opacity="1" /><path clip-path="url(#clip860)" d="M17.917 720.791 L17.917 713.87 L60.0464 713.87 L60.0464 720.791 L17.917 720.791 M1.51666 720.791 L1.51666 713.87 L10.2811 713.87 L10.2811 720.791 L1.51666 720.791 Z" fill="#000000" fill-rule="nonzero" fill-opacity="1" /><path clip-path="url(#clip860)" d="M24.3117 671.665 L1.51666 671.665 L1.51666 664.744 L60.0464 664.744 L60.0464 671.665 L53.727 671.665 Q57.4886 673.847 59.3317 677.195 Q61.1373 680.505 61.1373 685.169 Q61.1373 692.805 55.0436 697.62 Q48.9499 702.397 39.0194 702.397 Q29.0889 702.397 22.9951 697.62 Q16.9014 692.805 16.9014 685.169 Q16.9014 680.505 18.7446 677.195 Q20.5501 673.847 24.3117 671.665 M39.0194 695.25 Q46.6553 695.25 51.0187 692.128 Q55.3445 688.968 55.3445 683.476 Q55.3445 677.985 51.0187 674.825 Q46.6553 671.665 39.0194 671.665 Q31.3834 671.665 27.0576 674.825 Q22.6942 677.985 22.6942 683.476 Q22.6942 688.968 27.0576 692.128 Q31.3834 695.25 39.0194 695.25 Z" fill="#000000" fill-rule="nonzero" fill-opacity="1" /><path clip-path="url(#clip860)" d="M5.9553 643.642 L17.917 643.642 L17.917 629.385 L23.2961 629.385 L23.2961 643.642 L46.1663 643.642 Q51.3196 643.642 52.7866 642.25 Q54.2537 640.82 54.2537 636.495 L54.2537 629.385 L60.0464 629.385 L60.0464 636.495 Q60.0464 644.507 57.0748 647.554 Q54.0656 650.6 46.1663 650.6 L23.2961 650.6 L23.2961 655.679 L17.917 655.679 L17.917 650.6 L5.9553 650.6 L5.9553 643.642 Z" fill="#000000" fill-rule="nonzero" fill-opacity="1" /><path clip-path="url(#clip860)" d="M34.6183 585.262 L60.0464 585.262 L60.0464 592.184 L34.844 592.184 Q28.8632 592.184 25.8915 594.516 Q22.9199 596.848 22.9199 601.512 Q22.9199 607.117 26.4934 610.352 Q30.0669 613.587 36.2358 613.587 L60.0464 613.587 L60.0464 620.546 L1.51666 620.546 L1.51666 613.587 L24.4621 613.587 Q20.663 611.104 18.7822 607.756 Q16.9014 604.371 16.9014 599.97 Q16.9014 592.71 21.4153 588.986 Q25.8915 585.262 34.6183 585.262 Z" fill="#000000" fill-rule="nonzero" fill-opacity="1" /><path clip-path="url(#clip860)" d="M1.51666 547.609 L1.51666 531.66 L6.89569 531.66 L6.89569 540.688 L64.8236 540.688 L64.8236 531.66 L70.2026 531.66 L70.2026 547.609 L1.51666 547.609 Z" fill="#000000" fill-rule="nonzero" fill-opacity="1" /><path clip-path="url(#clip860)" d="M52.0343 478.321 L36.9505 478.321 L36.9505 490.734 L30.7063 490.734 L30.7063 470.798 L54.8179 470.798 Q57.94 475.199 59.5574 480.503 Q61.1373 485.807 61.1373 491.825 Q61.1373 504.991 53.4637 512.439 Q45.7525 519.849 32.0229 519.849 Q18.2556 519.849 10.582 512.439 Q2.87082 504.991 2.87082 491.825 Q2.87082 486.333 4.22498 481.406 Q5.57914 476.44 8.21223 472.265 L16.2996 472.265 Q12.7261 476.478 10.9205 481.218 Q9.115 485.957 9.115 491.186 Q9.115 501.492 14.8702 506.683 Q20.6254 511.837 32.0229 511.837 Q43.3828 511.837 49.1379 506.683 Q54.8931 501.492 54.8931 491.186 Q54.8931 487.161 54.216 484.001 Q53.5013 480.842 52.0343 478.321 Z" fill="#000000" fill-rule="nonzero" fill-opacity="1" /><path clip-path="url(#clip860)" d="M33.2266 449.32 L53.8023 449.32 L53.8023 437.132 Q53.8023 431.001 51.282 428.067 Q48.7242 425.095 43.4956 425.095 Q38.2294 425.095 35.7468 428.067 Q33.2266 431.001 33.2266 437.132 L33.2266 449.32 M10.1306 449.32 L27.0576 449.32 L27.0576 438.073 Q27.0576 432.506 24.9888 429.797 Q22.8823 427.051 18.5941 427.051 Q14.3436 427.051 12.2371 429.797 Q10.1306 432.506 10.1306 438.073 L10.1306 449.32 M3.88644 456.918 L3.88644 437.508 Q3.88644 428.819 7.49753 424.117 Q11.1086 419.415 17.7666 419.415 Q22.9199 419.415 25.9668 421.823 Q29.0136 424.23 29.7659 428.894 Q30.9696 423.29 34.8064 420.205 Q38.6056 417.083 44.3231 417.083 Q51.8463 417.083 55.9463 422.199 Q60.0464 427.315 60.0464 436.756 L60.0464 456.918 L3.88644 456.918 Z" fill="#000000" fill-rule="nonzero" fill-opacity="1" /><path clip-path="url(#clip860)" d="M3.88644 392.069 L3.88644 385.674 L67.1934 405.234 L67.1934 411.629 L3.88644 392.069 Z" fill="#000000" fill-rule="nonzero" fill-opacity="1" /><path clip-path="url(#clip860)" d="M19.1584 351.557 L25.7035 351.557 Q24.1988 354.491 23.4465 357.651 Q22.6942 360.81 22.6942 364.196 Q22.6942 369.349 24.2741 371.945 Q25.8539 374.502 29.0136 374.502 Q31.421 374.502 32.8128 372.659 Q34.167 370.816 35.4083 365.249 L35.9349 362.879 Q37.5147 355.507 40.4111 352.422 Q43.2699 349.3 48.4232 349.3 Q54.2913 349.3 57.7143 353.964 Q61.1373 358.591 61.1373 366.716 Q61.1373 370.101 60.4602 373.788 Q59.8207 377.436 58.5042 381.499 L51.3573 381.499 Q53.3509 377.662 54.3665 373.938 Q55.3445 370.214 55.3445 366.566 Q55.3445 361.675 53.6894 359.042 Q51.9967 356.409 48.9499 356.409 Q46.1287 356.409 44.6241 358.328 Q43.1195 360.208 41.7277 366.641 L41.1634 369.048 Q39.8093 375.48 37.0257 378.339 Q34.2046 381.198 29.3145 381.198 Q23.3713 381.198 20.1364 376.985 Q16.9014 372.772 16.9014 365.023 Q16.9014 361.186 17.4657 357.801 Q18.0299 354.416 19.1584 351.557 Z" fill="#000000" fill-rule="nonzero" fill-opacity="1" /><path clip-path="url(#clip860)" d="M1.51666 322.104 L70.2026 322.104 L70.2026 338.053 L64.8236 338.053 L64.8236 329.063 L6.89569 329.063 L6.89569 338.053 L1.51666 338.053 L1.51666 322.104 Z" fill="#000000" fill-rule="nonzero" fill-opacity="1" /><polyline clip-path="url(#clip862)" style="stroke:#009af9; stroke-linecap:round; stroke-linejoin:round; stroke-width:6; stroke-opacity:1; fill:none" points="390.807,1555.2 538.429,1296.35 833.673,845.52 1128.92,418.043 1424.16,253.451 1719.4,148.239 2014.65,130.656 2309.89,99.8126 2605.13,102.695 "/>
<circle clip-path="url(#clip862)" cx="390.807" cy="1555.2" r="18" fill="#009af9" fill-rule="evenodd" fill-opacity="1" stroke="#000000" stroke-opacity="1" stroke-width="3.6"/>
<circle clip-path="url(#clip862)" cx="538.429" cy="1296.35" r="18" fill="#009af9" fill-rule="evenodd" fill-opacity="1" stroke="#000000" stroke-opacity="1" stroke-width="3.6"/>
<circle clip-path="url(#clip862)" cx="833.673" cy="845.52" r="18" fill="#009af9" fill-rule="evenodd" fill-opacity="1" stroke="#000000" stroke-opacity="1" stroke-width="3.6"/>
<circle clip-path="url(#clip862)" cx="1128.92" cy="418.043" r="18" fill="#009af9" fill-rule="evenodd" fill-opacity="1" stroke="#000000" stroke-opacity="1" stroke-width="3.6"/>
<circle clip-path="url(#clip862)" cx="1424.16" cy="253.451" r="18" fill="#009af9" fill-rule="evenodd" fill-opacity="1" stroke="#000000" stroke-opacity="1" stroke-width="3.6"/>
<circle clip-path="url(#clip862)" cx="1719.4" cy="148.239" r="18" fill="#009af9" fill-rule="evenodd" fill-opacity="1" stroke="#000000" stroke-opacity="1" stroke-width="3.6"/>
<circle clip-path="url(#clip862)" cx="2014.65" cy="130.656" r="18" fill="#009af9" fill-rule="evenodd" fill-opacity="1" stroke="#000000" stroke-opacity="1" stroke-width="3.6"/>
<circle clip-path="url(#clip862)" cx="2309.89" cy="99.8126" r="18" fill="#009af9" fill-rule="evenodd" fill-opacity="1" stroke="#000000" stroke-opacity="1" stroke-width="3.6"/>
<circle clip-path="url(#clip862)" cx="2605.13" cy="102.695" r="18" fill="#009af9" fill-rule="evenodd" fill-opacity="1" stroke="#000000" stroke-opacity="1" stroke-width="3.6"/>
<polyline clip-path="url(#clip862)" style="stroke:#e26f46; stroke-linecap:round; stroke-linejoin:round; stroke-width:6; stroke-opacity:1; fill:none" points="390.807,1555.2 538.429,1296.63 833.673,841.485 1128.92,428.996 1424.16,223.761 1719.4,169.281 2014.65,111.054 2309.89,108.172 2605.13,91.165 "/>
<circle clip-path="url(#clip862)" cx="390.807" cy="1555.2" r="18" fill="#e26f46" fill-rule="evenodd" fill-opacity="1" stroke="#000000" stroke-opacity="1" stroke-width="3.6"/>
<circle clip-path="url(#clip862)" cx="538.429" cy="1296.63" r="18" fill="#e26f46" fill-rule="evenodd" fill-opacity="1" stroke="#000000" stroke-opacity="1" stroke-width="3.6"/>
<circle clip-path="url(#clip862)" cx="833.673" cy="841.485" r="18" fill="#e26f46" fill-rule="evenodd" fill-opacity="1" stroke="#000000" stroke-opacity="1" stroke-width="3.6"/>
<circle clip-path="url(#clip862)" cx="1128.92" cy="428.996" r="18" fill="#e26f46" fill-rule="evenodd" fill-opacity="1" stroke="#000000" stroke-opacity="1" stroke-width="3.6"/>
<circle clip-path="url(#clip862)" cx="1424.16" cy="223.761" r="18" fill="#e26f46" fill-rule="evenodd" fill-opacity="1" stroke="#000000" stroke-opacity="1" stroke-width="3.6"/>
<circle clip-path="url(#clip862)" cx="1719.4" cy="169.281" r="18" fill="#e26f46" fill-rule="evenodd" fill-opacity="1" stroke="#000000" stroke-opacity="1" stroke-width="3.6"/>
<circle clip-path="url(#clip862)" cx="2014.65" cy="111.054" r="18" fill="#e26f46" fill-rule="evenodd" fill-opacity="1" stroke="#000000" stroke-opacity="1" stroke-width="3.6"/>
<circle clip-path="url(#clip862)" cx="2309.89" cy="108.172" r="18" fill="#e26f46" fill-rule="evenodd" fill-opacity="1" stroke="#000000" stroke-opacity="1" stroke-width="3.6"/>
<circle clip-path="url(#clip862)" cx="2605.13" cy="91.165" r="18" fill="#e26f46" fill-rule="evenodd" fill-opacity="1" stroke="#000000" stroke-opacity="1" stroke-width="3.6"/>
<polyline clip-path="url(#clip862)" style="stroke:#3da44d; stroke-linecap:round; stroke-linejoin:round; stroke-width:6; stroke-opacity:1; fill:none" points="390.807,1555.2 538.429,1308.16 833.673,1014.44 1128.92,943.237 1424.16,955.632 1719.4,724.166 2014.65,522.39 2309.89,304.471 2605.13,110.766 "/>
<circle clip-path="url(#clip862)" cx="390.807" cy="1555.2" r="18" fill="#3da44d" fill-rule="evenodd" fill-opacity="1" stroke="#000000" stroke-opacity="1" stroke-width="3.6"/>
<circle clip-path="url(#clip862)" cx="538.429" cy="1308.16" r="18" fill="#3da44d" fill-rule="evenodd" fill-opacity="1" stroke="#000000" stroke-opacity="1" stroke-width="3.6"/>
<circle clip-path="url(#clip862)" cx="833.673" cy="1014.44" r="18" fill="#3da44d" fill-rule="evenodd" fill-opacity="1" stroke="#000000" stroke-opacity="1" stroke-width="3.6"/>
<circle clip-path="url(#clip862)" cx="1128.92" cy="943.237" r="18" fill="#3da44d" fill-rule="evenodd" fill-opacity="1" stroke="#000000" stroke-opacity="1" stroke-width="3.6"/>
<circle clip-path="url(#clip862)" cx="1424.16" cy="955.632" r="18" fill="#3da44d" fill-rule="evenodd" fill-opacity="1" stroke="#000000" stroke-opacity="1" stroke-width="3.6"/>
<circle clip-path="url(#clip862)" cx="1719.4" cy="724.166" r="18" fill="#3da44d" fill-rule="evenodd" fill-opacity="1" stroke="#000000" stroke-opacity="1" stroke-width="3.6"/>
<circle clip-path="url(#clip862)" cx="2014.65" cy="522.39" r="18" fill="#3da44d" fill-rule="evenodd" fill-opacity="1" stroke="#000000" stroke-opacity="1" stroke-width="3.6"/>
<circle clip-path="url(#clip862)" cx="2309.89" cy="304.471" r="18" fill="#3da44d" fill-rule="evenodd" fill-opacity="1" stroke="#000000" stroke-opacity="1" stroke-width="3.6"/>
<circle clip-path="url(#clip862)" cx="2605.13" cy="110.766" r="18" fill="#3da44d" fill-rule="evenodd" fill-opacity="1" stroke="#000000" stroke-opacity="1" stroke-width="3.6"/>
<polyline clip-path="url(#clip862)" style="stroke:#808080; stroke-linecap:round; stroke-linejoin:round; stroke-width:6; stroke-opacity:1; fill:none" stroke-dasharray="24, 15" points="1424.16,3150.99 1424.16,-1504.63 "/>
<path clip-path="url(#clip860)" d="M326.838 410.013 L856.925 410.013 L856.925 98.9732 L326.838 98.9732  Z" fill="#ffffff" fill-rule="evenodd" fill-opacity="1"/>
<polyline clip-path="url(#clip860)" style="stroke:#000000; stroke-linecap:round; stroke-linejoin:round; stroke-width:4; stroke-opacity:1; fill:none" points="326.838,410.013 856.925,410.013 856.925,98.9732 326.838,98.9732 326.838,410.013 "/>
<polyline clip-path="url(#clip860)" style="stroke:#009af9; stroke-linecap:round; stroke-linejoin:round; stroke-width:9; stroke-opacity:1; fill:none" points="354.722,176.733 522.027,176.733 "/>
<circle clip-path="url(#clip860)" cx="438.374" cy="176.733" r="15.4912" fill="#009af9" fill-rule="evenodd" fill-opacity="1" stroke="#000000" stroke-opacity="1" stroke-width="6.28364"/>
<path clip-path="url(#clip860)" d="M549.911 193.834 L557.237 193.834 L557.237 202.653 L549.911 202.653 L549.911 193.834 M549.911 165.883 L557.237 165.883 L557.237 174.702 L549.911 174.702 L549.911 165.883 Z" fill="#000000" fill-rule="nonzero" fill-opacity="1" /><path clip-path="url(#clip860)" d="M604.563 179.181 L604.563 202.653 L598.175 202.653 L598.175 179.389 Q598.175 173.869 596.022 171.126 Q593.869 168.383 589.563 168.383 Q584.39 168.383 581.404 171.681 Q578.418 174.98 578.418 180.674 L578.418 202.653 L571.994 202.653 L571.994 163.765 L578.418 163.765 L578.418 169.806 Q580.709 166.299 583.8 164.563 Q586.925 162.827 590.987 162.827 Q597.688 162.827 601.126 166.994 Q604.563 171.126 604.563 179.181 Z" fill="#000000" fill-rule="nonzero" fill-opacity="1" /><path clip-path="url(#clip860)" d="M616.647 187.306 L616.647 163.765 L623.036 163.765 L623.036 187.063 Q623.036 192.584 625.188 195.362 Q627.341 198.105 631.647 198.105 Q636.82 198.105 639.806 194.806 Q642.827 191.507 642.827 185.813 L642.827 163.765 L649.216 163.765 L649.216 202.653 L642.827 202.653 L642.827 196.681 Q640.501 200.223 637.41 201.959 Q634.355 203.66 630.292 203.66 Q623.591 203.66 620.119 199.493 Q616.647 195.327 616.647 187.306 M632.723 162.827 L632.723 162.827 Z" fill="#000000" fill-rule="nonzero" fill-opacity="1" /><path clip-path="url(#clip860)" d="M692.653 171.23 Q695.049 166.924 698.382 164.876 Q701.716 162.827 706.23 162.827 Q712.306 162.827 715.604 167.098 Q718.903 171.334 718.903 179.181 L718.903 202.653 L712.479 202.653 L712.479 179.389 Q712.479 173.799 710.5 171.091 Q708.521 168.383 704.459 168.383 Q699.493 168.383 696.612 171.681 Q693.73 174.98 693.73 180.674 L693.73 202.653 L687.306 202.653 L687.306 179.389 Q687.306 173.764 685.327 171.091 Q683.348 168.383 679.216 168.383 Q674.32 168.383 671.438 171.716 Q668.556 175.014 668.556 180.674 L668.556 202.653 L662.133 202.653 L662.133 163.765 L668.556 163.765 L668.556 169.806 Q670.744 166.23 673.799 164.528 Q676.855 162.827 681.056 162.827 Q685.292 162.827 688.244 164.98 Q691.23 167.133 692.653 171.23 Z" fill="#000000" fill-rule="nonzero" fill-opacity="1" /><path clip-path="url(#clip860)" d="M749.32 183.105 Q741.577 183.105 738.59 184.876 Q735.604 186.646 735.604 190.917 Q735.604 194.32 737.827 196.334 Q740.084 198.313 743.938 198.313 Q749.25 198.313 752.445 194.563 Q755.674 190.778 755.674 184.528 L755.674 183.105 L749.32 183.105 M762.063 180.466 L762.063 202.653 L755.674 202.653 L755.674 196.75 Q753.486 200.292 750.222 201.993 Q746.958 203.66 742.236 203.66 Q736.264 203.66 732.722 200.327 Q729.216 196.959 729.216 191.334 Q729.216 184.771 733.59 181.438 Q738 178.105 746.715 178.105 L755.674 178.105 L755.674 177.48 Q755.674 173.07 752.757 170.674 Q749.875 168.244 744.632 168.244 Q741.299 168.244 738.139 169.042 Q734.979 169.841 732.063 171.438 L732.063 165.535 Q735.57 164.181 738.868 163.521 Q742.167 162.827 745.292 162.827 Q753.729 162.827 757.896 167.202 Q762.063 171.577 762.063 180.466 Z" fill="#000000" fill-rule="nonzero" fill-opacity="1" /><polyline clip-path="url(#clip860)" style="stroke:#e26f46; stroke-linecap:round; stroke-linejoin:round; stroke-width:9; stroke-opacity:1; fill:none" points="354.722,254.493 522.027,254.493 "/>
<circle clip-path="url(#clip860)" cx="438.374" cy="254.493" r="15.4912" fill="#e26f46" fill-rule="evenodd" fill-opacity="1" stroke="#000000" stroke-opacity="1" stroke-width="6.28364"/>
<path clip-path="url(#clip860)" d="M549.911 271.594 L557.237 271.594 L557.237 280.413 L549.911 280.413 L549.911 271.594 M549.911 243.643 L557.237 243.643 L557.237 252.462 L549.911 252.462 L549.911 243.643 Z" fill="#000000" fill-rule="nonzero" fill-opacity="1" /><path clip-path="url(#clip860)" d="M597.029 242.67 L597.029 248.712 Q594.32 247.323 591.404 246.629 Q588.487 245.934 585.362 245.934 Q580.605 245.934 578.209 247.393 Q575.848 248.851 575.848 251.768 Q575.848 253.99 577.55 255.274 Q579.251 256.524 584.39 257.67 L586.577 258.156 Q593.383 259.615 596.23 262.288 Q599.112 264.927 599.112 269.684 Q599.112 275.101 594.807 278.26 Q590.536 281.42 583.036 281.42 Q579.911 281.42 576.508 280.795 Q573.14 280.205 569.39 278.99 L569.39 272.392 Q572.932 274.233 576.369 275.17 Q579.807 276.073 583.175 276.073 Q587.688 276.073 590.119 274.545 Q592.55 272.983 592.55 270.17 Q592.55 267.566 590.779 266.177 Q589.043 264.788 583.105 263.504 L580.883 262.983 Q574.946 261.733 572.307 259.163 Q569.668 256.559 569.668 252.045 Q569.668 246.559 573.557 243.573 Q577.445 240.587 584.598 240.587 Q588.14 240.587 591.265 241.108 Q594.39 241.629 597.029 242.67 Z" fill="#000000" fill-rule="nonzero" fill-opacity="1" /><path clip-path="url(#clip860)" d="M624.355 246.004 Q619.216 246.004 616.23 250.031 Q613.244 254.024 613.244 261.004 Q613.244 267.983 616.195 272.01 Q619.181 276.003 624.355 276.003 Q629.459 276.003 632.445 271.976 Q635.431 267.948 635.431 261.004 Q635.431 254.094 632.445 250.066 Q629.459 246.004 624.355 246.004 M624.355 240.587 Q632.688 240.587 637.445 246.004 Q642.202 251.42 642.202 261.004 Q642.202 270.552 637.445 276.003 Q632.688 281.42 624.355 281.42 Q615.987 281.42 611.23 276.003 Q606.508 270.552 606.508 261.004 Q606.508 251.42 611.23 246.004 Q615.987 240.587 624.355 240.587 Z" fill="#000000" fill-rule="nonzero" fill-opacity="1" /><path clip-path="url(#clip860)" d="M680.778 243.018 L680.778 248.99 Q678.07 247.497 675.327 246.768 Q672.619 246.004 669.841 246.004 Q663.626 246.004 660.188 249.962 Q656.751 253.886 656.751 261.004 Q656.751 268.122 660.188 272.08 Q663.626 276.003 669.841 276.003 Q672.619 276.003 675.327 275.274 Q678.07 274.51 680.778 273.017 L680.778 278.92 Q678.105 280.17 675.223 280.795 Q672.376 281.42 669.146 281.42 Q660.362 281.42 655.188 275.899 Q650.015 270.379 650.015 261.004 Q650.015 251.49 655.223 246.038 Q660.466 240.587 669.563 240.587 Q672.514 240.587 675.327 241.212 Q678.139 241.802 680.778 243.018 Z" fill="#000000" fill-rule="nonzero" fill-opacity="1" /><path clip-path="url(#clip860)" d="M691.646 226.386 L698.07 226.386 L698.07 258.295 L717.132 241.525 L725.292 241.525 L704.667 259.719 L726.16 280.413 L717.827 280.413 L698.07 261.42 L698.07 280.413 L691.646 280.413 L691.646 226.386 Z" fill="#000000" fill-rule="nonzero" fill-opacity="1" /><path clip-path="url(#clip860)" d="M763.799 259.372 L763.799 262.497 L734.424 262.497 Q734.84 269.094 738.382 272.566 Q741.959 276.003 748.313 276.003 Q751.993 276.003 755.431 275.101 Q758.903 274.198 762.306 272.392 L762.306 278.434 Q758.868 279.892 755.257 280.656 Q751.646 281.42 747.931 281.42 Q738.625 281.42 733.174 276.003 Q727.757 270.587 727.757 261.351 Q727.757 251.802 732.896 246.212 Q738.07 240.587 746.82 240.587 Q754.667 240.587 759.215 245.656 Q763.799 250.691 763.799 259.372 M757.41 257.497 Q757.34 252.254 754.458 249.129 Q751.611 246.004 746.889 246.004 Q741.542 246.004 738.313 249.024 Q735.118 252.045 734.632 257.531 L757.41 257.497 Z" fill="#000000" fill-rule="nonzero" fill-opacity="1" /><path clip-path="url(#clip860)" d="M780.604 230.483 L780.604 241.525 L793.764 241.525 L793.764 246.49 L780.604 246.49 L780.604 267.601 Q780.604 272.358 781.889 273.712 Q783.208 275.066 787.201 275.066 L793.764 275.066 L793.764 280.413 L787.201 280.413 Q779.806 280.413 776.993 277.67 Q774.181 274.892 774.181 267.601 L774.181 246.49 L769.493 246.49 L769.493 241.525 L774.181 241.525 L774.181 230.483 L780.604 230.483 Z" fill="#000000" fill-rule="nonzero" fill-opacity="1" /><path clip-path="url(#clip860)" d="M826.958 242.67 L826.958 248.712 Q824.25 247.323 821.333 246.629 Q818.416 245.934 815.291 245.934 Q810.535 245.934 808.139 247.393 Q805.778 248.851 805.778 251.768 Q805.778 253.99 807.479 255.274 Q809.18 256.524 814.319 257.67 L816.507 258.156 Q823.312 259.615 826.159 262.288 Q829.041 264.927 829.041 269.684 Q829.041 275.101 824.736 278.26 Q820.465 281.42 812.965 281.42 Q809.84 281.42 806.437 280.795 Q803.069 280.205 799.319 278.99 L799.319 272.392 Q802.861 274.233 806.298 275.17 Q809.736 276.073 813.104 276.073 Q817.618 276.073 820.048 274.545 Q822.479 272.983 822.479 270.17 Q822.479 267.566 820.708 266.177 Q818.972 264.788 813.035 263.504 L810.812 262.983 Q804.875 261.733 802.236 259.163 Q799.597 256.559 799.597 252.045 Q799.597 246.559 803.486 243.573 Q807.375 240.587 814.528 240.587 Q818.069 240.587 821.194 241.108 Q824.319 241.629 826.958 242.67 Z" fill="#000000" fill-rule="nonzero" fill-opacity="1" /><polyline clip-path="url(#clip860)" style="stroke:#3da44d; stroke-linecap:round; stroke-linejoin:round; stroke-width:9; stroke-opacity:1; fill:none" points="354.722,332.253 522.027,332.253 "/>
<circle clip-path="url(#clip860)" cx="438.374" cy="332.253" r="15.4912" fill="#3da44d" fill-rule="evenodd" fill-opacity="1" stroke="#000000" stroke-opacity="1" stroke-width="6.28364"/>
<path clip-path="url(#clip860)" d="M549.911 349.354 L557.237 349.354 L557.237 358.173 L549.911 358.173 L549.911 349.354 M549.911 321.403 L557.237 321.403 L557.237 330.222 L549.911 330.222 L549.911 321.403 Z" fill="#000000" fill-rule="nonzero" fill-opacity="1" /><path clip-path="url(#clip860)" d="M600.223 320.778 L600.223 326.75 Q597.515 325.257 594.772 324.528 Q592.063 323.764 589.286 323.764 Q583.07 323.764 579.633 327.722 Q576.196 331.646 576.196 338.764 Q576.196 345.882 579.633 349.84 Q583.07 353.763 589.286 353.763 Q592.063 353.763 594.772 353.034 Q597.515 352.27 600.223 350.777 L600.223 356.68 Q597.55 357.93 594.668 358.555 Q591.82 359.18 588.591 359.18 Q579.807 359.18 574.633 353.659 Q569.459 348.139 569.459 338.764 Q569.459 329.25 574.668 323.798 Q579.911 318.347 589.008 318.347 Q591.959 318.347 594.772 318.972 Q597.584 319.562 600.223 320.778 Z" fill="#000000" fill-rule="nonzero" fill-opacity="1" /><path clip-path="url(#clip860)" d="M626.404 323.764 Q621.265 323.764 618.279 327.791 Q615.293 331.784 615.293 338.764 Q615.293 345.743 618.244 349.77 Q621.23 353.763 626.404 353.763 Q631.508 353.763 634.494 349.736 Q637.48 345.708 637.48 338.764 Q637.48 331.854 634.494 327.826 Q631.508 323.764 626.404 323.764 M626.404 318.347 Q634.737 318.347 639.494 323.764 Q644.251 329.18 644.251 338.764 Q644.251 348.312 639.494 353.763 Q634.737 359.18 626.404 359.18 Q618.036 359.18 613.279 353.763 Q608.556 348.312 608.556 338.764 Q608.556 329.18 613.279 323.764 Q618.036 318.347 626.404 318.347 Z" fill="#000000" fill-rule="nonzero" fill-opacity="1" /><path clip-path="url(#clip860)" d="M677.376 325.257 Q676.299 324.632 675.014 324.354 Q673.764 324.041 672.237 324.041 Q666.82 324.041 663.903 327.583 Q661.021 331.09 661.021 337.687 L661.021 358.173 L654.598 358.173 L654.598 319.285 L661.021 319.285 L661.021 325.326 Q663.035 321.784 666.264 320.083 Q669.494 318.347 674.112 318.347 Q674.771 318.347 675.57 318.451 Q676.369 318.521 677.341 318.694 L677.376 325.257 Z" fill="#000000" fill-rule="nonzero" fill-opacity="1" /><path clip-path="url(#clip860)" d="M715.778 337.132 L715.778 340.257 L686.403 340.257 Q686.82 346.854 690.362 350.326 Q693.938 353.763 700.292 353.763 Q703.973 353.763 707.41 352.861 Q710.882 351.958 714.285 350.152 L714.285 356.194 Q710.848 357.652 707.236 358.416 Q703.625 359.18 699.91 359.18 Q690.605 359.18 685.153 353.763 Q679.737 348.347 679.737 339.111 Q679.737 329.562 684.875 323.972 Q690.049 318.347 698.799 318.347 Q706.646 318.347 711.195 323.416 Q715.778 328.451 715.778 337.132 M709.389 335.257 Q709.32 330.014 706.438 326.889 Q703.591 323.764 698.868 323.764 Q693.521 323.764 690.292 326.784 Q687.098 329.805 686.612 335.291 L709.389 335.257 Z" fill="#000000" fill-rule="nonzero" fill-opacity="1" /><path clip-path="url(#clip860)" d="M751.056 320.43 L751.056 326.472 Q748.347 325.083 745.431 324.389 Q742.514 323.694 739.389 323.694 Q734.632 323.694 732.236 325.153 Q729.875 326.611 729.875 329.528 Q729.875 331.75 731.577 333.034 Q733.278 334.284 738.417 335.43 L740.604 335.916 Q747.41 337.375 750.257 340.048 Q753.139 342.687 753.139 347.444 Q753.139 352.861 748.833 356.02 Q744.563 359.18 737.063 359.18 Q733.938 359.18 730.535 358.555 Q727.167 357.965 723.417 356.75 L723.417 350.152 Q726.959 351.993 730.396 352.93 Q733.834 353.833 737.202 353.833 Q741.715 353.833 744.146 352.305 Q746.577 350.743 746.577 347.93 Q746.577 345.326 744.806 343.937 Q743.07 342.548 737.132 341.264 L734.91 340.743 Q728.972 339.493 726.334 336.923 Q723.695 334.319 723.695 329.805 Q723.695 324.319 727.584 321.333 Q731.472 318.347 738.625 318.347 Q742.167 318.347 745.292 318.868 Q748.417 319.389 751.056 320.43 Z" fill="#000000" fill-rule="nonzero" fill-opacity="1" /></svg>
